<svg width="621" height="302" viewBox="0 0 621 302" fill="none" xmlns="http://www.w3.org/2000/svg">
<path d="M0.138868 40.6741C185.398 21.823 375.88 36.615 501.057 115.568C539.05 139.986 570.049 168.383 585.791 198.51C568.482 168.445 538.137 140.397 499.661 116.159C373.813 36.9905 185.8 22.6375 0.138868 40.6741Z" fill="url(#paint0_linear_493_2347)"/>
<path d="M75.8546 56.9725C289.801 48.6449 471.779 103.315 580.965 195.182C595.711 207.694 610.057 220.877 620.154 234.406C608.981 220.873 595.016 207.98 579.98 195.502C468.391 103.716 290.927 49.5436 75.8546 56.9725Z" fill="url(#paint1_linear_493_2347)"/>
<path d="M81 83.1671C281.74 79.8651 465.621 125.602 575.559 211.89C590.468 223.66 604.958 236.135 615 249C603.846 236.135 589.83 223.929 574.593 212.214C461.593 125.815 283.562 80.8854 81 83.1671Z" fill="url(#paint2_linear_493_2347)"/>
<path d="M579.985 125C482.094 202.287 310.143 254.694 164.352 288.194C153.222 290.693 142.076 293.145 130.87 295.476C119.665 297.676 108.116 300.268 97 302C231.271 274.528 363.376 238.697 477.597 186C515.367 168.422 550.612 147.829 580 125H579.985Z" fill="url(#paint3_linear_493_2347)"/>
<path d="M580 139C485.166 215.013 308.841 237.358 162.803 239.851C140.958 240.077 118.486 240.209 97 238.986C118.904 239.701 140.853 239.635 162.773 239.249C310.26 235.665 482.925 215.116 580 139Z" fill="url(#paint4_linear_493_2347)"/>
<defs>
<linearGradient id="paint0_linear_493_2347" x1="41.5786" y1="-15.7431" x2="468.025" y2="178.847" gradientUnits="userSpaceOnUse">
<stop stop-color="white" stop-opacity="0"/>
<stop offset="0.471323" stop-color="white" stop-opacity="0.2"/>
<stop offset="1" stop-color="white" stop-opacity="0"/>
</linearGradient>
<linearGradient id="paint1_linear_493_2347" x1="-24.9077" y1="36.1931" x2="389.206" y2="341.706" gradientUnits="userSpaceOnUse">
<stop stop-color="white" stop-opacity="0"/>
<stop offset="0.267615" stop-color="white" stop-opacity="0.2"/>
<stop offset="1" stop-color="white" stop-opacity="0"/>
</linearGradient>
<linearGradient id="paint2_linear_493_2347" x1="96.0695" y1="59.5977" x2="357.57" y2="419.671" gradientUnits="userSpaceOnUse">
<stop stop-color="white" stop-opacity="0.3"/>
<stop offset="1" stop-color="white" stop-opacity="0"/>
</linearGradient>
<linearGradient id="paint3_linear_493_2347" x1="481.36" y1="125" x2="210.392" y2="410.819" gradientUnits="userSpaceOnUse">
<stop stop-color="white" stop-opacity="0.3"/>
<stop offset="1" stop-color="white" stop-opacity="0"/>
</linearGradient>
<linearGradient id="paint4_linear_493_2347" x1="456.86" y1="139" x2="380.052" y2="318.761" gradientUnits="userSpaceOnUse">
<stop stop-color="white" stop-opacity="0.2"/>
<stop offset="1" stop-color="white" stop-opacity="0"/>
</linearGradient>
</defs>
</svg>
