<svg width="24" height="24" viewBox="0 0 24 24" fill="none" xmlns="http://www.w3.org/2000/svg">
<path d="M17.2775 2.3042H6.73811C6.45547 2.3042 6.18771 2.45296 6.04639 2.70584L0.772981 11.832C0.631663 12.0775 0.631663 12.3824 0.772981 12.6279L6.03895 21.7541C6.18027 21.9995 6.44803 22.1557 6.73067 22.1557H17.27C17.5527 22.1557 17.8204 22.007 17.9618 21.7541L23.2277 12.6279C23.3691 12.3824 23.3691 12.0775 23.2277 11.832L17.9618 2.70584C17.8204 2.46039 17.5527 2.3042 17.27 2.3042H17.2775Z" fill="url(#paint0_linear_574_19506)"/>
<path d="M16.422 3.78429H7.58588C7.30325 3.78429 7.03548 3.93305 6.89417 4.18594L2.47611 11.832C2.33479 12.0775 2.33479 12.3824 2.47611 12.6279L6.89417 20.2814C7.03548 20.5268 7.30325 20.683 7.58588 20.683H16.422C16.7046 20.683 16.9724 20.5342 17.1137 20.2814L21.5318 12.6279C21.6731 12.3824 21.6731 12.0775 21.5318 11.832L17.1137 4.1785C16.9724 3.93305 16.7046 3.77686 16.422 3.77686V3.78429Z" fill="url(#paint1_linear_574_19506)"/>
<path d="M12.0031 10.4927C11.0511 10.4927 10.2627 11.2736 10.2627 12.2331C10.2627 13.1926 11.0437 13.9661 12.0031 13.9661C12.9626 13.9661 13.7362 13.1926 13.7362 12.2331C13.7362 11.2736 12.9626 10.4927 12.0031 10.4927ZM12.0106 13.0067C11.5718 13.0067 11.2296 12.6571 11.2296 12.2331C11.2296 11.8092 11.5792 11.4522 12.0106 11.4522C12.442 11.4522 12.7841 11.8017 12.7841 12.2331C12.7841 12.6645 12.4345 13.0067 12.0106 13.0067Z" fill="white"/>
<defs>
<linearGradient id="paint0_linear_574_19506" x1="24.8789" y1="35.6851" x2="8.10666" y2="5.13801" gradientUnits="userSpaceOnUse">
<stop stop-color="white"/>
<stop offset="1" stop-color="#E8EEF4"/>
</linearGradient>
<linearGradient id="paint1_linear_574_19506" x1="1.86621" y1="-8.04927" x2="15.165" y2="18.5483" gradientUnits="userSpaceOnUse">
<stop stop-color="#B27A38"/>
<stop offset="1" stop-color="#935D16"/>
</linearGradient>
</defs>
</svg>
