<svg width="28" height="26" viewBox="0 0 28 26" fill="none" xmlns="http://www.w3.org/2000/svg">
<g filter="url(#filter0_d_574_19490)">
<path d="M19.2691 2H8.72969C8.44705 2 8.17929 2.14876 8.03797 2.40164L2.772 11.5278C2.63069 11.7733 2.63069 12.0782 2.772 12.3237L8.03797 21.4499C8.17929 21.6953 8.44705 21.8515 8.72969 21.8515H19.2691C19.5517 21.8515 19.8195 21.7028 19.9608 21.4499L25.2268 12.3237C25.3681 12.0782 25.3681 11.7733 25.2268 11.5278L19.9608 2.40164C19.8195 2.15619 19.5517 2 19.2691 2Z" fill="url(#paint0_linear_574_19490)"/>
<path d="M18.4152 3.47266H9.57905C9.29641 3.47266 9.02865 3.62141 8.88733 3.8743L4.46927 11.5278C4.32795 11.7733 4.32795 12.0782 4.46927 12.3237L8.88733 19.9772C9.02865 20.2226 9.29641 20.3788 9.57905 20.3788H18.4152C18.6978 20.3788 18.9656 20.23 19.1069 19.9772L23.5249 12.3237C23.6663 12.0782 23.6663 11.7733 23.5249 11.5278L19.1069 3.8743C18.9656 3.62885 18.6978 3.47266 18.4152 3.47266Z" fill="#9BAAB7"/>
<path d="M11.802 10.1885C10.8499 10.1885 10.0615 10.9694 10.0615 11.9289C10.0615 12.8884 10.8425 13.6619 11.802 13.6619C12.7614 13.6619 13.535 12.8884 13.535 11.9289C13.535 10.9694 12.7614 10.1885 11.802 10.1885ZM11.802 12.695C11.3631 12.695 11.021 12.3454 11.021 11.9215C11.021 11.4975 11.3706 11.1405 11.802 11.1405C12.2334 11.1405 12.5755 11.4901 12.5755 11.9215C12.5755 12.3529 12.2259 12.695 11.802 12.695Z" fill="white"/>
<path d="M16.2053 10.1885C15.2533 10.1885 14.4648 10.9694 14.4648 11.9289C14.4648 12.8884 15.2458 13.6619 16.2053 13.6619C17.1648 13.6619 17.9383 12.8884 17.9383 11.9289C17.9383 10.9694 17.1648 10.1885 16.2053 10.1885ZM16.2053 12.695C15.7665 12.695 15.4243 12.3454 15.4243 11.9215C15.4243 11.4975 15.7739 11.1405 16.2053 11.1405C16.6367 11.1405 16.9788 11.4901 16.9788 11.9215C16.9788 12.3529 16.6292 12.695 16.2053 12.695Z" fill="white"/>
</g>
<defs>
<filter id="filter0_d_574_19490" x="0.666016" y="2" width="26.667" height="23.8516" filterUnits="userSpaceOnUse" color-interpolation-filters="sRGB">
<feFlood flood-opacity="0" result="BackgroundImageFix"/>
<feColorMatrix in="SourceAlpha" type="matrix" values="0 0 0 0 0 0 0 0 0 0 0 0 0 0 0 0 0 0 127 0" result="hardAlpha"/>
<feOffset dy="2"/>
<feGaussianBlur stdDeviation="1"/>
<feComposite in2="hardAlpha" operator="out"/>
<feColorMatrix type="matrix" values="0 0 0 0 0 0 0 0 0 0 0 0 0 0 0 0 0 0 0.12 0"/>
<feBlend mode="normal" in2="BackgroundImageFix" result="effect1_dropShadow_574_19490"/>
<feBlend mode="normal" in="SourceGraphic" in2="effect1_dropShadow_574_19490" result="shape"/>
</filter>
<linearGradient id="paint0_linear_574_19490" x1="26.7664" y1="36.3925" x2="8.19416" y2="0.809954" gradientUnits="userSpaceOnUse">
<stop stop-color="white"/>
<stop offset="1" stop-color="#E8EEF4"/>
</linearGradient>
</defs>
</svg>
