<svg width="36" height="35" viewBox="0 0 36 35" fill="none" xmlns="http://www.w3.org/2000/svg">
<path d="M0.121094 27.0299L18.061 34.2135V14.6914L0.121094 7.52051V27.0299Z" fill="url(#paint0_linear_545_8966)"/>
<path d="M36.0005 27.0299L18.0605 34.2135V14.6914L36.0005 7.52051V27.0299Z" fill="url(#paint1_linear_545_8966)"/>
<path d="M0.121094 7.52055L18.061 0.336914L36.001 7.52055L18.061 14.6914L0.121094 7.52055Z" fill="url(#paint2_linear_545_8966)"/>
<path d="M10.8517 11.8074L28.7789 4.62377L25.27 3.22021L7.33008 10.4038L10.8517 11.8074Z" fill="url(#paint3_linear_545_8966)"/>
<path d="M7.33008 17.9447L10.8517 19.3483V11.8074L7.33008 10.4038V17.9447Z" fill="url(#paint4_linear_545_8966)"/>
<path d="M28.2431 34.2137C32.5206 34.2137 35.9882 30.7462 35.9882 26.4687C35.9882 22.1912 32.5206 18.7236 28.2431 18.7236C23.9656 18.7236 20.498 22.1912 20.498 26.4687C20.498 30.7462 23.9656 34.2137 28.2431 34.2137Z" fill="url(#paint5_linear_545_8966)"/>
<path d="M27.2981 29.1607C27.1194 29.1607 26.9408 29.0969 26.8132 28.9566L24.6951 26.8385C24.4272 26.5705 24.4272 26.1367 24.6951 25.856C24.9631 25.5753 25.3969 25.588 25.6776 25.856L27.3108 27.4892L30.8325 23.9676C31.1004 23.6996 31.5342 23.6996 31.8149 23.9676C32.0956 24.2355 32.0829 24.6693 31.8149 24.9501L27.8084 28.9566C27.6681 29.0969 27.5022 29.1607 27.3236 29.1607H27.2981Z" fill="white"/>
<defs>
<linearGradient id="paint0_linear_545_8966" x1="12.0258" y1="6.61458" x2="2.29022" y2="53.9015" gradientUnits="userSpaceOnUse">
<stop stop-color="#F0CD33"/>
<stop offset="1" stop-color="#DD9833"/>
</linearGradient>
<linearGradient id="paint1_linear_545_8966" x1="23.981" y1="-22.9876" x2="27.5154" y2="27.8848" gradientUnits="userSpaceOnUse">
<stop stop-color="#F0CD33"/>
<stop offset="1" stop-color="#DD9833"/>
</linearGradient>
<linearGradient id="paint2_linear_545_8966" x1="16.3385" y1="-17.2202" x2="18.329" y2="11.476" gradientUnits="userSpaceOnUse">
<stop stop-color="#F0CD33"/>
<stop offset="1" stop-color="#DD9833"/>
</linearGradient>
<linearGradient id="paint3_linear_545_8966" x1="-11.5158" y1="-5.99219" x2="48.0331" y2="21.2112" gradientUnits="userSpaceOnUse">
<stop stop-color="#9BAAB7"/>
<stop offset="1" stop-color="#E8EEF4"/>
</linearGradient>
<linearGradient id="paint4_linear_545_8966" x1="-12.0772" y1="-15.3705" x2="9.52472" y2="15.5076" gradientUnits="userSpaceOnUse">
<stop stop-color="#9BAAB7"/>
<stop offset="1" stop-color="#E8EEF4"/>
</linearGradient>
<linearGradient id="paint5_linear_545_8966" x1="20.498" y1="26.4687" x2="36.0009" y2="26.4687" gradientUnits="userSpaceOnUse">
<stop stop-color="#46A56C"/>
<stop offset="1" stop-color="#59C788"/>
</linearGradient>
</defs>
</svg>
