<svg width="24" height="24" viewBox="0 0 24 24" fill="none" xmlns="http://www.w3.org/2000/svg">
<path d="M16.3879 6.80859H7.61194C5.85605 6.80859 4.43262 8.23202 4.43262 9.98792V18.7639C4.43262 20.5198 5.85605 21.9432 7.61194 21.9432H16.3879C18.1438 21.9432 19.5672 20.5198 19.5672 18.7639V9.98792C19.5672 8.23202 18.1438 6.80859 16.3879 6.80859Z" stroke="#082337" stroke-width="1.5" stroke-linecap="round" stroke-linejoin="round"/>
<path d="M9.17556 15.2886C9.82857 15.2886 10.3579 14.7592 10.3579 14.1062C10.3579 13.4532 9.82857 12.9238 9.17556 12.9238C8.52254 12.9238 7.99316 13.4532 7.99316 14.1062C7.99316 14.7592 8.52254 15.2886 9.17556 15.2886Z" fill="#082337"/>
<path d="M14.824 15.2886C15.477 15.2886 16.0064 14.7592 16.0064 14.1062C16.0064 13.4532 15.477 12.9238 14.824 12.9238C14.171 12.9238 13.6416 13.4532 13.6416 14.1062C13.6416 14.7592 14.171 15.2886 14.824 15.2886Z" fill="#082337"/>
<path d="M6.13379 7.50488L8.89271 10.7039H11.9998" stroke="#082337" stroke-width="1.5" stroke-linecap="round" stroke-linejoin="round"/>
<path d="M17.866 7.50488L15.1071 10.7039H12" stroke="#082337" stroke-width="1.5" stroke-linecap="round" stroke-linejoin="round"/>
<path d="M19.568 10.5789V5.9019C19.568 3.74731 17.8207 2 15.6661 2H11.9941" stroke="#082337" stroke-width="1.5" stroke-linecap="round" stroke-linejoin="round"/>
<path d="M4.43262 10.5789V5.9019C4.43262 3.74731 6.17993 2 8.33451 2H12.0065" stroke="#082337" stroke-width="1.5" stroke-linecap="round" stroke-linejoin="round"/>
<path d="M4.43228 12.9238H2.23828V16.9243H4.43228V12.9238Z" stroke="#082337" stroke-width="1.5" stroke-linecap="round" stroke-linejoin="round"/>
<path d="M21.7614 12.9238H19.5674V16.9243H21.7614V12.9238Z" stroke="#082337" stroke-width="1.5" stroke-linecap="round" stroke-linejoin="round"/>
</svg>
