<svg width="390" height="122" viewBox="0 0 390 122" fill="none" xmlns="http://www.w3.org/2000/svg">
<rect width="390" height="122" rx="22" fill="#E8EEF4"/>
<mask id="mask0_201_1684" style="mask-type:alpha" maskUnits="userSpaceOnUse" x="31" y="0" width="130" height="122">
<rect x="31" width="130" height="122" rx="22" fill="#E8EEF4"/>
</mask>
<g mask="url(#mask0_201_1684)">
<path d="M155.145 71.6711L61.3735 44.2148L42.0088 110.351L135.78 137.808L155.145 71.6711Z" fill="url(#paint0_linear_201_1684)"/>
<path d="M155.151 71.6779L135.79 137.796L42.0288 110.341L61.389 44.2222C60.035 48.8317 61.1729 53.8446 63.7658 58.8576C69.5854 70.1654 82.7083 81.4589 90.8903 87.7826C95.4134 91.2686 101.075 92.9252 106.779 92.4354C117.093 91.5135 134.263 89.0935 145.269 82.7121C150.152 79.8887 153.811 76.2731 155.151 71.6635V71.6779Z" fill="url(#paint1_linear_201_1684)"/>
<path d="M155.15 71.6637C159.011 58.4688 123.172 7 123.172 7C123.172 7 65.235 31.013 61.3745 44.2079L155.15 71.6637Z" fill="url(#paint2_linear_201_1684)"/>
<path d="M153.336 55.1119L145.254 82.7118C134.249 89.0931 117.078 91.5132 106.765 92.4351C101.06 92.9393 95.4135 91.2827 90.8759 87.7823C82.6939 81.4441 69.571 70.1651 63.7515 58.8572L71.8326 31.2574C72.4952 29.0102 74.8288 27.7282 77.0904 28.3908L150.469 49.8686C152.716 50.5312 153.998 52.8648 153.336 55.1263V55.1119Z" fill="url(#paint3_linear_201_1684)"/>
<path d="M135.79 137.796L106.606 91.009C103.495 86.0105 97.1276 84.1522 91.8122 86.6731L42 110.34L135.776 137.796H135.79Z" fill="url(#paint4_linear_201_1684)"/>
<path d="M138.791 59.6526L81.6401 42.919C81.0064 42.7334 80.3423 43.0967 80.1567 43.7304L79.0759 47.4216C78.8904 48.0553 79.2537 48.7194 79.8874 48.905L137.038 65.6386C137.672 65.8242 138.336 65.4609 138.521 64.8271L139.602 61.136C139.788 60.5023 139.424 59.8382 138.791 59.6526Z" fill="url(#paint5_linear_201_1684)"/>
<path d="M134.894 72.948L77.7436 56.2144C77.1099 56.0288 76.4458 56.3921 76.2602 57.0258L75.1795 60.717C74.9939 61.3507 75.3572 62.0148 75.9909 62.2004L133.141 78.934C133.775 79.1196 134.439 78.7563 134.625 78.1226L135.706 74.4314C135.891 73.7977 135.528 73.1336 134.894 72.948Z" fill="url(#paint6_linear_201_1684)"/>
</g>
<path d="M195.2 15C189.006 15 184 20.0203 184 26.2002C184 26.4264 184 26.6527 184.014 26.879C184.396 38.6306 195.2 45.659 195.2 45.659C195.2 45.659 206.004 38.6306 206.386 26.879C206.4 26.6527 206.4 26.4264 206.4 26.2002C206.4 20.0061 201.38 15 195.2 15ZM195.2 30.9093C192.612 30.9093 190.505 28.8022 190.505 26.2143C190.505 23.6264 192.612 21.5193 195.2 21.5193C197.788 21.5193 199.895 23.6264 199.895 26.2143C199.895 28.8022 197.788 30.9093 195.2 30.9093Z" fill="url(#paint7_linear_201_1684)"/>
<path d="M195.214 82.1031C198.909 82.1031 201.903 79.1083 201.903 75.4141C201.903 71.7199 198.909 68.7251 195.214 68.7251C191.52 68.7251 188.525 71.7199 188.525 75.4141C188.525 79.1083 191.52 82.1031 195.214 82.1031Z" fill="url(#paint8_linear_201_1684)"/>
<path d="M197.152 78.0156C197.024 78.0156 196.883 77.959 196.784 77.86L194.847 75.7529C194.762 75.654 194.719 75.5408 194.719 75.4135V73.2782C194.719 73.0095 194.946 72.7832 195.214 72.7832C195.483 72.7832 195.709 73.0095 195.709 73.2782V75.2156L197.519 77.1812C197.703 77.3792 197.689 77.7045 197.491 77.8883C197.392 77.9732 197.279 78.0156 197.152 78.0156Z" fill="white"/>
<path d="M200.008 105.987C200.008 106.354 199.768 106.68 199.429 106.807L192.16 109.381V113.722C192.16 114.203 191.764 114.599 191.283 114.599C190.802 114.599 190.406 114.203 190.406 113.722V101.518C190.406 101.037 190.802 100.641 191.283 100.641C191.764 100.641 192.16 101.023 192.16 101.518V102.593L199.429 105.166C199.782 105.294 200.008 105.619 200.008 106.001V105.987Z" fill="url(#paint9_linear_201_1684)"/>
<path d="M315.603 22.9458H219.805C218.368 22.9458 217.204 23.7943 217.204 24.841V26.0506C217.204 27.0973 218.368 27.9458 219.805 27.9458H315.603C317.04 27.9458 318.204 27.0973 318.204 26.0506V24.841C318.204 23.7943 317.04 22.9458 315.603 22.9458Z" fill="#9BAAB7"/>
<path d="M273.612 33.9458H219.797C218.365 33.9458 217.204 34.964 217.204 36.22V37.6716C217.204 38.9276 218.365 39.9458 219.797 39.9458H273.612C275.043 39.9458 276.204 38.9276 276.204 37.6716V36.22C276.204 34.964 275.043 33.9458 273.612 33.9458Z" fill="#9BAAB7"/>
<path d="M315.603 66.9458H219.805C218.368 66.9458 217.204 67.7943 217.204 68.841V70.0506C217.204 71.0973 218.368 71.9458 219.805 71.9458H315.603C317.04 71.9458 318.204 71.0973 318.204 70.0506V68.841C318.204 67.7943 317.04 66.9458 315.603 66.9458Z" fill="#9BAAB7"/>
<path d="M273.612 78.9458H219.797C218.365 78.9458 217.204 79.7943 217.204 80.841V82.0506C217.204 83.0973 218.365 83.9458 219.797 83.9458H273.612C275.043 83.9458 276.204 83.0973 276.204 82.0506V80.841C276.204 79.7943 275.043 78.9458 273.612 78.9458Z" fill="#9BAAB7"/>
<path d="M315.603 98.9458H219.805C218.368 98.9458 217.204 99.964 217.204 101.22V102.672C217.204 103.928 218.368 104.946 219.805 104.946H315.603C317.04 104.946 318.204 103.928 318.204 102.672V101.22C318.204 99.964 317.04 98.9458 315.603 98.9458Z" fill="#9BAAB7"/>
<path d="M273.612 110.946H219.797C218.365 110.946 217.204 111.794 217.204 112.841V114.051C217.204 115.097 218.365 115.946 219.797 115.946H273.612C275.043 115.946 276.204 115.097 276.204 114.051V112.841C276.204 111.794 275.043 110.946 273.612 110.946Z" fill="#9BAAB7"/>
<defs>
<linearGradient id="paint0_linear_201_1684" x1="25.1639" y1="95.2425" x2="186.131" y2="85.9522" gradientUnits="userSpaceOnUse">
<stop stop-color="#937231"/>
<stop offset="1" stop-color="#DD9833"/>
</linearGradient>
<linearGradient id="paint1_linear_201_1684" x1="-57.1971" y1="19.2974" x2="82.1594" y2="83.456" gradientUnits="userSpaceOnUse">
<stop stop-color="#F0CD33"/>
<stop offset="1" stop-color="#DD9833"/>
</linearGradient>
<linearGradient id="paint2_linear_201_1684" x1="68.8343" y1="18.7503" x2="162.606" y2="46.2065" gradientUnits="userSpaceOnUse">
<stop stop-color="#F0CD33"/>
<stop offset="1" stop-color="#DD9833"/>
</linearGradient>
<linearGradient id="paint3_linear_201_1684" x1="77.3793" y1="144.226" x2="107.458" y2="60.0032" gradientUnits="userSpaceOnUse">
<stop stop-color="#9BAAB7"/>
<stop offset="1" stop-color="#E8EEF4"/>
</linearGradient>
<linearGradient id="paint4_linear_201_1684" x1="47.5834" y1="91.3284" x2="141.355" y2="118.785" gradientUnits="userSpaceOnUse">
<stop stop-color="#F0CD33"/>
<stop offset="1" stop-color="#DD9833"/>
</linearGradient>
<linearGradient id="paint5_linear_201_1684" x1="79.6281" y1="45.587" x2="139.06" y2="62.9885" gradientUnits="userSpaceOnUse">
<stop stop-color="#008CC8"/>
<stop offset="1" stop-color="#01518D"/>
</linearGradient>
<linearGradient id="paint6_linear_201_1684" x1="75.7357" y1="58.8686" x2="135.167" y2="76.2701" gradientUnits="userSpaceOnUse">
<stop stop-color="#008CC8"/>
<stop offset="1" stop-color="#01518D"/>
</linearGradient>
<linearGradient id="paint7_linear_201_1684" x1="193.036" y1="13.105" x2="201.62" y2="66.1219" gradientUnits="userSpaceOnUse">
<stop stop-color="#008CC8"/>
<stop offset="1" stop-color="#01518D"/>
</linearGradient>
<linearGradient id="paint8_linear_201_1684" x1="185.287" y1="62.5169" x2="203.6" y2="86.3173" gradientUnits="userSpaceOnUse">
<stop stop-color="#008CC8"/>
<stop offset="1" stop-color="#01518D"/>
</linearGradient>
<linearGradient id="paint9_linear_201_1684" x1="189.19" y1="102.027" x2="196.148" y2="111.078" gradientUnits="userSpaceOnUse">
<stop stop-color="#008CC8"/>
<stop offset="1" stop-color="#01518D"/>
</linearGradient>
</defs>
</svg>
