<svg width="32" height="32" viewBox="0 0 32 32" fill="none" xmlns="http://www.w3.org/2000/svg">
<path d="M27.3298 14.2387V22.746C27.3298 24.7556 26.5838 26.6929 25.2361 28.1729C23.8523 29.7132 21.927 30.6518 19.8573 30.8082H12.1561C10.0985 30.6518 8.16115 29.7132 6.77735 28.1729C5.42965 26.6929 4.68359 24.7556 4.68359 22.746V14.2387C13.203 14.2387 16.0067 7.64453 16.0067 7.64453C16.0067 7.64453 18.8104 14.2387 27.3298 14.2387Z" fill="url(#paint0_linear_545_9066)"/>
<path d="M30.5322 8.46392V15.8883H27.3314V14.2398C18.812 14.2398 16.0083 7.64567 16.0083 7.64567C16.0083 7.64567 13.2046 14.2398 4.68517 14.2398V15.8883H1.48438V8.46392C1.48438 4.34861 4.81754 1.00342 8.94488 1.00342H23.0717C27.199 1.00342 30.5322 4.34861 30.5322 8.46392Z" fill="#082337"/>
<path d="M31.1307 16.4645H29.9274V7.37957C29.9274 4.19081 27.4486 1.6037 24.3922 1.6037H7.66625C4.60985 1.6037 2.13104 4.19081 2.13104 7.37957V16.4645H0.927734V7.37957C0.927734 3.52899 3.94803 0.400391 7.66625 0.400391H24.3922C28.1104 0.400391 31.1307 3.52899 31.1307 7.37957V16.4645Z" fill="url(#paint1_linear_545_9066)"/>
<path d="M4.68417 15.8861V23.142C4.68417 23.5391 4.35927 23.876 3.95015 23.876H1.51947C0.90578 23.876 0.400391 23.3827 0.400391 22.7569V16.9931C0.400391 16.3794 0.893747 15.874 1.51947 15.874H4.67213L4.68417 15.8861Z" fill="url(#paint2_linear_545_9066)"/>
<path d="M31.6002 17.0065V22.7703C31.6002 23.384 31.1068 23.8894 30.4811 23.8894H28.0504C27.6533 23.8894 27.3164 23.5645 27.3164 23.1554V15.8994H30.4691C31.0828 15.8994 31.5881 16.3928 31.5881 17.0185L31.6002 17.0065Z" fill="url(#paint3_linear_545_9066)"/>
<path d="M30.7001 22.6143V23.8176C30.7001 25.0329 29.7254 26.0076 28.51 26.0076H21.4707" stroke="#0073AF" stroke-linecap="round" stroke-linejoin="round"/>
<path d="M12.2175 19.4975C12.7691 19.4975 13.2162 19.0503 13.2162 18.4987C13.2162 17.9472 12.7691 17.5 12.2175 17.5C11.6659 17.5 11.2188 17.9472 11.2188 18.4987C11.2188 19.0503 11.6659 19.4975 12.2175 19.4975Z" fill="#082337"/>
<path d="M19.7995 19.4975C20.3511 19.4975 20.7983 19.0503 20.7983 18.4987C20.7983 17.9472 20.3511 17.5 19.7995 17.5C19.2479 17.5 18.8008 17.9472 18.8008 18.4987C18.8008 19.0503 19.2479 19.4975 19.7995 19.4975Z" fill="#082337"/>
<path d="M20.6877 24.5869H18.4495C17.6587 24.5869 17.0176 25.228 17.0176 26.0188C17.0176 26.8097 17.6587 27.4508 18.4495 27.4508H20.6877C21.4785 27.4508 22.1196 26.8097 22.1196 26.0188C22.1196 25.228 21.4785 24.5869 20.6877 24.5869Z" fill="#0073AF"/>
<defs>
<linearGradient id="paint0_linear_545_9066" x1="6.65702" y1="-1.16367" x2="20.0258" y2="28.197" gradientUnits="userSpaceOnUse">
<stop stop-color="#F0CD33"/>
<stop offset="1" stop-color="#DD9833"/>
</linearGradient>
<linearGradient id="paint1_linear_545_9066" x1="0.927734" y1="8.43848" x2="31.1307" y2="8.43848" gradientUnits="userSpaceOnUse">
<stop stop-color="#008CC8"/>
<stop offset="1" stop-color="#01518D"/>
</linearGradient>
<linearGradient id="paint2_linear_545_9066" x1="0.412424" y1="19.881" x2="4.68416" y2="19.881" gradientUnits="userSpaceOnUse">
<stop stop-color="#008CC8"/>
<stop offset="1" stop-color="#01518D"/>
</linearGradient>
<linearGradient id="paint3_linear_545_9066" x1="27.3284" y1="19.8824" x2="31.6002" y2="19.8824" gradientUnits="userSpaceOnUse">
<stop stop-color="#008CC8"/>
<stop offset="1" stop-color="#01518D"/>
</linearGradient>
</defs>
</svg>
