<svg width="24" height="24" viewBox="0 0 24 24" fill="none" xmlns="http://www.w3.org/2000/svg">
<path d="M21.7658 16.4697V20.5095L11.9961 22.8592V16.4697" stroke="#082337" stroke-width="1.5" stroke-linecap="round" stroke-linejoin="round"/>
<path d="M8.26562 7.03563L2.2334 5.5791V20.5085L11.9963 22.8582" stroke="#082337" stroke-width="1.5" stroke-linecap="round" stroke-linejoin="round"/>
<path d="M16.4758 2C13.5558 2 11.1855 4.37029 11.1855 7.29022C11.1855 7.39327 11.1856 7.5032 11.1924 7.60626C11.3779 13.1507 16.4689 16.4691 16.4689 16.4691C16.4689 16.4691 21.5668 13.1576 21.7454 7.60626C21.7523 7.5032 21.7522 7.39327 21.7522 7.29022C21.7522 4.37029 19.382 2 16.462 2H16.4758ZM16.4758 9.50936C15.2528 9.50936 14.2635 8.52002 14.2635 7.29022C14.2635 6.06041 15.2528 5.07795 16.4758 5.07795C17.6987 5.07795 18.6949 6.06728 18.6949 7.29022C18.6949 8.51315 17.7056 9.50936 16.4758 9.50936Z" stroke="#082337" stroke-width="1.5" stroke-linecap="round" stroke-linejoin="round"/>
</svg>
