<svg width="20" height="20" viewBox="0 0 20 20" fill="none" xmlns="http://www.w3.org/2000/svg">
<path d="M9.81372 0.689453C5.91717 0.689453 2.75854 3.84807 2.75854 7.74463C2.75854 7.92394 2.76544 8.09635 2.77923 8.27566C2.78613 8.36532 2.79303 8.45497 2.80682 8.54463C3.38613 14.1653 9.81372 19.7239 9.81372 19.7239C9.81372 19.7239 16.2344 14.1653 16.8137 8.54463C16.8275 8.45497 16.8344 8.36532 16.8413 8.27566C16.8551 8.09635 16.862 7.92394 16.862 7.74463C16.862 3.84807 13.7103 0.689453 9.81372 0.689453ZM9.81372 10.8067C8.12406 10.8067 6.75165 9.43428 6.75165 7.74463C6.75165 6.05497 8.12406 4.68256 9.81372 4.68256C11.5034 4.68256 12.8689 6.05497 12.8689 7.74463C12.8689 9.43428 11.5034 10.8067 9.81372 10.8067Z" fill="url(#paint0_linear_519_14741)"/>
<defs>
<linearGradient id="paint0_linear_519_14741" x1="2.48268" y1="9.08256" x2="16.4344" y2="11.1446" gradientUnits="userSpaceOnUse">
<stop stop-color="#F0CD33"/>
<stop offset="1" stop-color="#DD9833"/>
</linearGradient>
</defs>
</svg>
