<svg width="24" height="24" viewBox="0 0 24 24" fill="none" xmlns="http://www.w3.org/2000/svg">
<path d="M14.5844 21.9996C15.9701 21.8947 17.2585 21.2655 18.1948 20.2319C19.1011 19.2356 19.6029 17.9323 19.6029 16.584V10.8764C13.8803 10.8764 12.0002 6.45703 12.0002 6.45703C12.0002 6.45703 10.1201 10.8764 4.39746 10.8764V16.584C4.39746 17.9323 4.89931 19.2356 5.80565 20.2319C6.74195 21.258 8.0303 21.8947 9.41602 21.9996H14.5844Z" stroke="#082337" stroke-width="1.5" stroke-linecap="round" stroke-linejoin="round"/>
<path d="M4.39747 11.9844H1.53613V17.3475H4.39747V11.9844Z" stroke="#082337" stroke-width="1.5" stroke-linecap="round" stroke-linejoin="round"/>
<path d="M22.4639 11.9844H19.6025V17.3475H22.4639V11.9844Z" stroke="#082337" stroke-width="1.5" stroke-linecap="round" stroke-linejoin="round"/>
<path d="M22.4641 17.3477V18.1566C22.4641 18.9656 21.8049 19.6247 20.996 19.6247H12" stroke="#082337" stroke-width="1.5" stroke-linecap="round" stroke-linejoin="round"/>
<path d="M2.24805 11.9847V7.01107C2.24805 4.24712 4.48767 2 7.25912 2H12.0005" stroke="#082337" stroke-width="1.5" stroke-linecap="round" stroke-linejoin="round"/>
<path d="M21.7457 11.9847V7.01107C21.7457 4.24712 19.506 2 16.7346 2H11.9932" stroke="#082337" stroke-width="1.5" stroke-linecap="round" stroke-linejoin="round"/>
</svg>
