<svg width="32" height="32" viewBox="0 0 32 32" fill="none" xmlns="http://www.w3.org/2000/svg">
<path d="M25.7756 1.7002H6.40104C5.12568 1.7002 4.0918 2.73408 4.0918 4.00944V27.991C4.0918 29.2663 5.12568 30.3002 6.40104 30.3002H25.7756C27.051 30.3002 28.0849 29.2663 28.0849 27.991V4.00944C28.0849 2.73408 27.051 1.7002 25.7756 1.7002Z" fill="url(#paint0_linear_322_2031)"/>
<path d="M22.8779 5.48828H7.90245C7.54534 5.48828 7.25586 5.77777 7.25586 6.13487V7.04702C7.25586 7.40412 7.54534 7.69361 7.90245 7.69361H22.8779C23.235 7.69361 23.5245 7.40412 23.5245 7.04702V6.13487C23.5245 5.77777 23.235 5.48828 22.8779 5.48828Z" fill="#082337"/>
<path d="M22.8779 9.43652H7.90245C7.54534 9.43652 7.25586 9.72601 7.25586 10.0831V10.9953C7.25586 11.3524 7.54534 11.6419 7.90245 11.6419H22.8779C23.235 11.6419 23.5245 11.3524 23.5245 10.9953V10.0831C23.5245 9.72601 23.235 9.43652 22.8779 9.43652Z" fill="#082337"/>
<path d="M20.5456 27.7954C23.6958 27.7954 26.2495 25.2417 26.2495 22.0915C26.2495 18.9414 23.6958 16.3877 20.5456 16.3877C17.3955 16.3877 14.8418 18.9414 14.8418 22.0915C14.8418 25.2417 17.3955 27.7954 20.5456 27.7954Z" fill="url(#paint1_linear_322_2031)"/>
<path d="M22.4879 24.3428C22.384 24.3428 22.2801 24.3082 22.1877 24.2274L20.2479 22.4031C20.1556 22.3223 20.1094 22.2068 20.1094 22.0913V18.7083C20.1094 18.4658 20.3056 18.2695 20.5481 18.2695C20.7906 18.2695 20.9869 18.4658 20.9869 18.7083V21.9066L22.7881 23.6039C22.9613 23.7655 22.9728 24.0426 22.8112 24.2158C22.7304 24.3082 22.6149 24.3544 22.4994 24.3544L22.4879 24.3428Z" fill="url(#paint2_linear_322_2031)"/>
<defs>
<linearGradient id="paint0_linear_322_2031" x1="-22.3606" y1="59.2119" x2="19.6792" y2="11.9763" gradientUnits="userSpaceOnUse">
<stop stop-color="#F0CD33"/>
<stop offset="1" stop-color="#DD9833"/>
</linearGradient>
<linearGradient id="paint1_linear_322_2031" x1="-27.7868" y1="-2.47884" x2="27.8198" y2="25.7863" gradientUnits="userSpaceOnUse">
<stop stop-color="#008CC8"/>
<stop offset="1" stop-color="#01518D"/>
</linearGradient>
<linearGradient id="paint2_linear_322_2031" x1="-17.8545" y1="-0.112054" x2="22.1415" y2="21.6525" gradientUnits="userSpaceOnUse">
<stop stop-color="#9BAAB7"/>
<stop offset="1" stop-color="#E8EEF4"/>
</linearGradient>
</defs>
</svg>
