<svg width="22" height="23" viewBox="0 0 22 23" fill="none" xmlns="http://www.w3.org/2000/svg">
<path d="M14.9837 6.19336H7.01521C5.03929 6.19336 3.4375 7.79515 3.4375 9.77107V17.7396C3.4375 19.7155 5.03929 21.3173 7.01521 21.3173H14.9837C16.9597 21.3173 18.5614 19.7155 18.5614 17.7396V9.77107C18.5614 7.79515 16.9597 6.19336 14.9837 6.19336Z" stroke="#082337" stroke-width="1.5" stroke-linecap="round" stroke-linejoin="round"/>
<path d="M8.17686 14.6711C8.83005 14.6711 9.35957 14.1416 9.35957 13.4884C9.35957 12.8352 8.83005 12.3057 8.17686 12.3057C7.52366 12.3057 6.99414 12.8352 6.99414 13.4884C6.99414 14.1416 7.52366 14.6711 8.17686 14.6711Z" fill="#082337"/>
<path d="M13.8233 14.6711C14.4765 14.6711 15.0061 14.1416 15.0061 13.4884C15.0061 12.8352 14.4765 12.3057 13.8233 12.3057C13.1701 12.3057 12.6406 12.8352 12.6406 13.4884C12.6406 14.1416 13.1701 14.6711 13.8233 14.6711Z" fill="#082337"/>
<path d="M5.13672 6.8877L7.89392 10.0884H10.9985" stroke="#082337" stroke-width="1.5" stroke-linecap="round" stroke-linejoin="round"/>
<path d="M16.8618 6.8877L14.1046 10.0884H11" stroke="#082337" stroke-width="1.5" stroke-linecap="round" stroke-linejoin="round"/>
<path d="M18.562 9.96279V5.29107C18.562 3.14001 16.8175 1.39551 14.6664 1.39551H11" stroke="#082337" stroke-width="1.5" stroke-linecap="round" stroke-linejoin="round"/>
<path d="M3.4375 9.96279V5.29107C3.4375 3.14001 5.18201 1.39551 7.33307 1.39551H10.9995" stroke="#082337" stroke-width="1.5" stroke-linecap="round" stroke-linejoin="round"/>
<path d="M3.43803 12.3057H1.25V16.2973H3.43803V12.3057Z" stroke="#082337" stroke-width="1.5" stroke-linecap="round" stroke-linejoin="round"/>
<path d="M20.7505 12.3057H18.5625V16.2973H20.7505V12.3057Z" stroke="#082337" stroke-width="1.5" stroke-linecap="round" stroke-linejoin="round"/>
</svg>
