<svg width="24" height="24" viewBox="0 0 24 24" fill="none" xmlns="http://www.w3.org/2000/svg">
<path d="M12 22C17.5228 22 22 17.5228 22 12C22 6.47715 17.5228 2 12 2C6.47715 2 2 6.47715 2 12C2 17.5228 6.47715 22 12 22Z" stroke="#082337" stroke-width="1.5" stroke-linecap="round" stroke-linejoin="round"/>
<path d="M12 22C9.24187 22 7 17.5233 7 12C7 6.47666 9.2348 2 12 2" stroke="#082337" stroke-width="1.5" stroke-linecap="round" stroke-linejoin="round"/>
<path d="M12 22C14.7581 22 17 17.5233 17 12C17 6.47666 14.7652 2 12 2" stroke="#082337" stroke-width="1.5" stroke-linecap="round" stroke-linejoin="round"/>
<path d="M3.8457 6.21582H20.1541" stroke="#082337" stroke-width="1.5" stroke-linecap="round" stroke-linejoin="round"/>
<path d="M3.8457 17.7852H20.1541" stroke="#082337" stroke-width="1.5" stroke-linecap="round" stroke-linejoin="round"/>
<path d="M2 12H21.9929" stroke="#082337" stroke-width="1.5" stroke-linecap="round" stroke-linejoin="round"/>
</svg>
