<svg width="58" height="49" viewBox="0 0 58 49" fill="none" xmlns="http://www.w3.org/2000/svg">
<path d="M40.3076 2.98828H5.42448C2.42862 2.98828 0 5.41691 0 8.41277V43.2959C0 46.2918 2.42862 48.7204 5.42448 48.7204H40.3076C43.3035 48.7204 45.7321 46.2918 45.7321 43.2959V8.41277C45.7321 5.41691 43.3035 2.98828 40.3076 2.98828Z" fill="url(#paint0_linear_519_14756)"/>
<path d="M51.1215 32.8081H49.4219C49.3367 32.8081 49.2615 32.8733 49.2515 32.9585L48.6799 36.9091C48.6699 36.9943 48.7251 37.0595 48.8103 37.0595H50.5098C50.8507 37.0595 51.1666 36.7837 51.2167 36.4428L51.6529 33.4298C51.703 33.0889 51.4674 32.8131 51.1265 32.8131L51.1215 32.8081Z" fill="#082337"/>
<path d="M4.44665 24.1802H29.6991V46.4145H4.44665C3.99043 46.4145 3.62445 46.0436 3.62445 45.5924V25.0074C3.62445 24.5512 3.99544 24.1852 4.44665 24.1852V24.1802Z" fill="#E8EEF4"/>
<path d="M44.9347 46.4141H29.704L29.704 24.1797L44.1125 24.1797C44.5687 24.1797 44.9347 24.5507 44.9347 25.0019V46.409V46.4141Z" fill="#9BAAB7"/>
<path d="M47.0956 40.6198V46.4153H30.762V28.6328H35.4094C36.4071 28.6328 37.3346 29.1492 37.861 29.9965L42.1725 36.945C42.6638 37.7421 43.5361 38.2284 44.4686 38.2284H44.6992C46.0228 38.2284 47.0956 39.2963 47.0956 40.6198Z" fill="url(#paint1_linear_519_14756)"/>
<path d="M56.932 40.6198V46.4153H47.0957V40.6198C47.0957 39.2963 46.0228 38.2284 44.6993 38.2284H44.4687C43.5362 38.2284 42.6639 37.7421 42.1725 36.945L37.861 29.9965C37.3346 29.1492 36.4071 28.6328 35.4095 28.6328H45.2458C46.2434 28.6328 47.1709 29.1492 47.6973 29.9965L52.0088 36.945C52.5001 37.7421 53.3724 38.2284 54.3049 38.2284H54.5356C55.8591 38.2284 56.932 39.2963 56.932 40.6198Z" fill="url(#paint2_linear_519_14756)"/>
<path d="M28.842 46.4141C28.3106 47.7727 27.1325 48.7202 25.7688 48.7202H23.5679C24.1545 48.7202 24.706 48.5448 25.1873 48.2389C25.2374 48.2139 25.2825 48.1788 25.3276 48.1437C25.6334 47.9281 25.9042 47.6574 26.1348 47.3466C26.1849 47.2764 26.2351 47.2062 26.2802 47.131C26.3303 47.0558 26.3754 46.9806 26.4155 46.9004C26.5058 46.7449 26.586 46.5795 26.6462 46.4141H28.842Z" fill="#082337"/>
<path d="M26.6461 46.4141C26.5859 46.5795 26.5057 46.7449 26.4154 46.9004C26.3753 46.9806 26.3302 47.0558 26.2801 47.131C26.235 47.2062 26.1848 47.2764 26.1347 47.3466C25.9041 47.6574 25.6334 47.9281 25.3275 48.1437C25.2824 48.1788 25.2323 48.2089 25.1872 48.2389C24.7059 48.5448 24.1544 48.7202 23.5678 48.7202C22.1992 48.7202 21.021 47.7727 20.4896 46.4141H26.6461Z" fill="url(#paint3_linear_519_14756)"/>
<path d="M54.3248 46.4141C53.7934 47.7727 52.6152 48.7202 51.2516 48.7202H49.0507C49.6373 48.7202 50.1888 48.5448 50.67 48.2389C50.7202 48.2139 50.7653 48.1788 50.8104 48.1437C51.1162 47.9281 51.387 47.6574 51.6176 47.3466C51.6677 47.2764 51.7178 47.2062 51.763 47.131C51.8131 47.0558 51.8582 46.9806 51.8983 46.9004C51.9886 46.7449 52.0688 46.5795 52.1289 46.4141H54.3248Z" fill="#082337"/>
<path d="M52.1289 46.4141C52.0687 46.5795 51.9885 46.7449 51.8982 46.9004C51.8581 46.9806 51.813 47.0558 51.7629 47.131C51.7178 47.2062 51.6676 47.2764 51.6175 47.3466C51.3869 47.6574 51.1161 47.9281 50.8103 48.1437C50.7652 48.1788 50.7151 48.2089 50.67 48.2389C50.1887 48.5448 49.6372 48.7202 49.0506 48.7202C47.682 48.7202 46.5038 47.7727 45.9724 46.4141H52.1289Z" fill="url(#paint4_linear_519_14756)"/>
<path d="M33.9455 27.6597H41.7714C42.1022 27.6597 42.368 27.9254 42.368 28.2563V28.6323H33.3539V28.2563C33.3539 27.9254 33.6196 27.6597 33.9505 27.6597H33.9455Z" fill="url(#paint5_linear_519_14756)"/>
<path d="M31.9652 30.9383V36.3828C31.9652 36.7538 32.266 37.0546 32.637 37.0546H39.2697C39.7961 37.0546 40.1169 36.478 39.8462 36.0268L36.6577 30.8029C36.3519 30.2965 35.8004 29.9907 35.2088 29.9907H32.9027C32.3813 29.9907 31.9601 30.4118 31.9601 30.9332L31.9652 30.9383Z" fill="#E8EEF4"/>
<path d="M49.4869 37.0595H44.8495C44.273 37.0595 43.7416 36.7587 43.4408 36.2674L40.2222 30.9933C39.9565 30.5571 40.2723 29.9956 40.7837 29.9956H45.4261C46.0177 29.9956 46.5641 30.3014 46.875 30.8078L50.0635 36.0317C50.3392 36.4829 50.0133 37.0595 49.4869 37.0595Z" fill="#E8EEF4"/>
<path d="M49.156 42.5292C49.7043 42.5292 50.1487 42.0848 50.1487 41.5366C50.1487 40.9884 49.7043 40.5439 49.156 40.5439C48.6078 40.5439 48.1634 40.9884 48.1634 41.5366C48.1634 42.0848 48.6078 42.5292 49.156 42.5292Z" fill="#E8EEF4"/>
<path d="M55.1523 42.5292C55.7005 42.5292 56.145 42.0848 56.145 41.5366C56.145 40.9884 55.7005 40.5439 55.1523 40.5439C54.6041 40.5439 54.1597 40.9884 54.1597 41.5366C54.1597 42.0848 54.6041 42.5292 55.1523 42.5292Z" fill="#E8EEF4"/>
<path d="M50.9307 41.1206H53.3772" stroke="#231F20" stroke-width="0.5" stroke-miterlimit="10"/>
<path d="M50.9307 41.8066H53.3772" stroke="#231F20" stroke-width="0.5" stroke-miterlimit="10"/>
<path d="M37.7006 32.8081H39.4001C39.4853 32.8081 39.5605 32.8733 39.5706 32.9585L40.1421 36.9091C40.1521 36.9943 40.097 37.0595 40.0117 37.0595H38.3122C37.9713 37.0595 37.6554 36.7837 37.6053 36.4428L37.1691 33.4298C37.119 33.0889 37.3546 32.8131 37.6955 32.8131L37.7006 32.8081Z" fill="#082337"/>
<path d="M40.408 44.75H30.8224C30.6119 44.75 30.4413 44.9206 30.4413 45.131V46.0334C30.4413 46.2439 30.6119 46.4144 30.8224 46.4144H40.408C40.6184 46.4144 40.789 46.2439 40.789 46.0334V45.131C40.789 44.9206 40.6184 44.75 40.408 44.75Z" fill="url(#paint6_linear_519_14756)"/>
<path d="M29.8144 44.75H16.6292C16.4188 44.75 16.2482 44.9206 16.2482 45.131V46.0334C16.2482 46.2439 16.4188 46.4144 16.6292 46.4144H29.8144C30.0248 46.4144 30.1954 46.2439 30.1954 46.0334V45.131C30.1954 44.9206 30.0248 44.75 29.8144 44.75Z" fill="#9BAAB7"/>
<path d="M11.7762 44.75H3.55424C3.34381 44.75 3.17322 44.9206 3.17322 45.131V46.0334C3.17322 46.2439 3.34381 46.4144 3.55424 46.4144H11.7762C11.9866 46.4144 12.1572 46.2439 12.1572 46.0334V45.131C12.1572 44.9206 11.9866 44.75 11.7762 44.75Z" fill="#9BAAB7"/>
<path d="M45.2207 24.1802H18.7149C18.5045 24.1802 18.3339 24.3508 18.3339 24.5612V25.4636C18.3339 25.674 18.5045 25.8446 18.7149 25.8446H45.2207C45.4311 25.8446 45.6017 25.674 45.6017 25.4636V24.5612C45.6017 24.3508 45.4311 24.1802 45.2207 24.1802Z" fill="url(#paint7_linear_519_14756)"/>
<path d="M42.6836 46.4149C42.1522 47.7735 40.974 48.721 39.6104 48.721H37.4095C38.7782 48.721 39.9563 47.7735 40.4877 46.4149H33.0328V44.4145C33.0328 41.963 35.0232 39.9727 37.4747 39.9727C38.4423 39.9727 39.3447 40.2835 40.0766 40.8149L40.0817 40.8199C41.1896 41.6271 41.9115 42.9356 41.9115 44.4145V46.4149H42.6836Z" fill="#082337"/>
<path d="M51.9584 44.75H41.9417C41.7313 44.75 41.5607 44.9206 41.5607 45.131V46.0334C41.5607 46.2439 41.7313 46.4144 41.9417 46.4144H51.9584C52.1689 46.4144 52.3394 46.2439 52.3394 46.0334V45.131C52.3394 44.9206 52.1689 44.75 51.9584 44.75Z" fill="url(#paint8_linear_519_14756)"/>
<path d="M37.4098 48.721C39.2843 48.721 40.8039 46.9433 40.8039 44.7504C40.8039 42.5575 39.2843 40.7798 37.4098 40.7798C35.5353 40.7798 34.0157 42.5575 34.0157 44.7504C34.0157 46.9433 35.5353 48.721 37.4098 48.721Z" fill="url(#paint9_linear_519_14756)"/>
<path d="M37.4098 47.1071C38.5229 47.1071 39.4252 46.0522 39.4252 44.7508C39.4252 43.4495 38.5229 42.3945 37.4098 42.3945C36.2967 42.3945 35.3944 43.4495 35.3944 44.7508C35.3944 46.0522 36.2967 47.1071 37.4098 47.1071Z" fill="url(#paint10_linear_519_14756)"/>
<path d="M37.4096 45.7926C37.8997 45.7926 38.297 45.3257 38.297 44.7498C38.297 44.1739 37.8997 43.707 37.4096 43.707C36.9196 43.707 36.5223 44.1739 36.5223 44.7498C36.5223 45.3257 36.9196 45.7926 37.4096 45.7926Z" fill="url(#paint11_linear_519_14756)"/>
<path d="M56.9368 44.75H46.9201C46.7096 44.75 46.5391 44.9206 46.5391 45.131V46.0334C46.5391 46.2439 46.7096 46.4144 46.9201 46.4144H56.9368C57.1473 46.4144 57.3178 46.2439 57.3178 46.0334V45.131C57.3178 44.9206 57.1473 44.75 56.9368 44.75Z" fill="#082337"/>
<path d="M17.4314 46.4149C16.9 47.7735 15.7218 48.721 14.3582 48.721H12.1573C13.526 48.721 14.7041 47.7735 15.2355 46.4149H7.78064V44.4145C7.78064 41.963 9.77095 39.9727 12.2225 39.9727C13.1901 39.9727 14.0925 40.2835 14.8244 40.8149L14.8295 40.8199C15.9374 41.6271 16.6593 42.9356 16.6593 44.4145V46.4149H17.4314Z" fill="#082337"/>
<path d="M12.1573 48.721C14.0318 48.721 15.5514 46.9433 15.5514 44.7504C15.5514 42.5575 14.0318 40.7798 12.1573 40.7798C10.2828 40.7798 8.76324 42.5575 8.76324 44.7504C8.76324 46.9433 10.2828 48.721 12.1573 48.721Z" fill="url(#paint12_linear_519_14756)"/>
<path d="M12.1572 47.1071C13.2703 47.1071 14.1726 46.0522 14.1726 44.7508C14.1726 43.4495 13.2703 42.3945 12.1572 42.3945C11.0442 42.3945 10.1418 43.4495 10.1418 44.7508C10.1418 46.0522 11.0442 47.1071 12.1572 47.1071Z" fill="url(#paint13_linear_519_14756)"/>
<path d="M12.1571 45.7926C12.6472 45.7926 13.0445 45.3257 13.0445 44.7498C13.0445 44.1739 12.6472 43.707 12.1571 43.707C11.6671 43.707 11.2698 44.1739 11.2698 44.7498C11.2698 45.3257 11.6671 45.7926 12.1571 45.7926Z" fill="url(#paint14_linear_519_14756)"/>
<path d="M30.06 24.1802H3.55424C3.34381 24.1802 3.17322 24.3508 3.17322 24.5612V25.4636C3.17322 25.674 3.34381 25.8446 3.55424 25.8446H30.06C30.2704 25.8446 30.441 25.674 30.441 25.4636V24.5612C30.441 24.3508 30.2704 24.1802 30.06 24.1802Z" fill="#9BAAB7"/>
<path d="M6.29163 24.1806V8.93994L14.0022 10.5693V24.1806H6.29163Z" fill="url(#paint15_linear_519_14756)"/>
<path d="M21.7131 24.1806V8.93994L29.4237 10.5693V24.1806H21.7131Z" fill="url(#paint16_linear_519_14756)"/>
<path d="M21.7126 24.1806V8.93994L14.002 10.5693V24.1806H21.7126Z" fill="url(#paint17_linear_519_14756)"/>
<path d="M37.1341 24.1806V8.93994L29.4235 10.5693V24.1806H37.1341Z" fill="url(#paint18_linear_519_14756)"/>
<path d="M29.4235 19.0319L31.9652 17.1418H33.6497L35.4094 17.3775L37.1341 17.1418V8.93994L29.4235 10.5693V19.0319Z" fill="url(#paint19_linear_519_14756)"/>
<path d="M35.9562 0.787598C32.9131 0.787598 30.4465 3.25418 30.4465 6.29731C30.4465 6.4076 30.4465 6.5179 30.4565 6.62819C30.647 12.4086 35.9562 15.8629 35.9562 15.8629C35.9562 15.8629 41.2654 12.4086 41.4559 6.62819C41.4659 6.5179 41.4659 6.4076 41.4659 6.29731C41.4659 3.25418 38.9993 0.787598 35.9562 0.787598ZM35.9562 8.60848C34.6828 8.60848 33.65 7.57572 33.65 6.29731C33.65 5.0189 34.6828 3.99115 35.9562 3.99115C37.2296 3.99115 38.2674 5.02391 38.2674 6.29731C38.2674 7.57071 37.2346 8.60848 35.9562 8.60848Z" fill="url(#paint20_linear_519_14756)"/>
<path d="M14.0022 19.7335V24.1804H6.29163V16.1439C6.29163 16.1439 7.51991 15.417 7.8157 15.417C8.11149 15.417 9.03395 15.8632 9.03395 15.8632L9.95641 16.56L10.5179 17.8886H11.9016C12.032 17.8886 12.3979 19.0116 12.3979 19.0116H13.3505L14.0022 19.7335Z" fill="url(#paint21_linear_519_14756)"/>
<path d="M21.7126 23.3936V24.1807H14.002V19.7338L14.9997 19.1422L16.0525 18.7812C16.0525 18.7812 17.0401 19.2074 17.2707 19.2074C17.5014 19.2074 18.5893 18.7812 18.5893 18.7812L19.9429 20.0998L19.6471 21.3481L20.8002 22.3408V23.2281L21.7126 23.3936Z" fill="url(#paint22_linear_519_14756)"/>
<path d="M14.002 10.5693V17.1418L15.2203 15.2067L16.8045 14.3644L17.8573 13.3567L18.9603 15.1415L20.0933 15.4172L20.6899 17.1418H21.7126V8.93994L14.002 10.5693Z" fill="url(#paint23_linear_519_14756)"/>
<path d="M21.7131 17.1418L23.6883 16.5603H25.413L26.6112 15.4172L28.0049 14.3795L28.7218 17.7384L29.4237 19.0319V10.5693L21.7131 8.93994V17.1418Z" fill="url(#paint24_linear_519_14756)"/>
<path d="M21.7131 23.3935L23.5129 21.2628L25.5684 20.7715L27.1476 21.0171H28.1803L29.4237 21.2628V24.1806H21.7131V23.3935Z" fill="url(#paint25_linear_519_14756)"/>
<path d="M29.4235 21.2627L30.762 19.0317L32.5318 17.9639H35.61L37.1341 19.0317V24.1805H29.4235V21.2627Z" fill="url(#paint26_linear_519_14756)"/>
<defs>
<linearGradient id="paint0_linear_519_14756" x1="-25.1471" y1="55.2578" x2="25.8891" y2="24.0044" gradientUnits="userSpaceOnUse">
<stop stop-color="#9BAAB7"/>
<stop offset="1" stop-color="#E8EEF4"/>
</linearGradient>
<linearGradient id="paint1_linear_519_14756" x1="13.8017" y1="22.9176" x2="40.879" y2="42.931" gradientUnits="userSpaceOnUse">
<stop stop-color="#008CC8"/>
<stop offset="1" stop-color="#01518D"/>
</linearGradient>
<linearGradient id="paint2_linear_519_14756" x1="35.4095" y1="37.5215" x2="56.932" y2="37.5215" gradientUnits="userSpaceOnUse">
<stop stop-color="#008CC8"/>
<stop offset="1" stop-color="#01518D"/>
</linearGradient>
<linearGradient id="paint3_linear_519_14756" x1="22.9362" y1="45.0003" x2="25.8088" y2="51.4375" gradientUnits="userSpaceOnUse">
<stop stop-color="#394F5F"/>
<stop offset="1" stop-color="#082337"/>
</linearGradient>
<linearGradient id="paint4_linear_519_14756" x1="48.4189" y1="45.0003" x2="51.2916" y2="51.4375" gradientUnits="userSpaceOnUse">
<stop stop-color="#394F5F"/>
<stop offset="1" stop-color="#082337"/>
</linearGradient>
<linearGradient id="paint5_linear_519_14756" x1="28.2302" y1="19.7886" x2="38.1617" y2="28.5821" gradientUnits="userSpaceOnUse">
<stop stop-color="#008CC8"/>
<stop offset="1" stop-color="#01518D"/>
</linearGradient>
<linearGradient id="paint6_linear_519_14756" x1="30.4413" y1="45.5822" x2="40.784" y2="45.5822" gradientUnits="userSpaceOnUse">
<stop stop-color="#394F5F"/>
<stop offset="1" stop-color="#082337"/>
</linearGradient>
<linearGradient id="paint7_linear_519_14756" x1="18.3339" y1="25.0124" x2="45.5967" y2="25.0124" gradientUnits="userSpaceOnUse">
<stop stop-color="#394F5F"/>
<stop offset="1" stop-color="#082337"/>
</linearGradient>
<linearGradient id="paint8_linear_519_14756" x1="41.5607" y1="45.5822" x2="52.3394" y2="45.5822" gradientUnits="userSpaceOnUse">
<stop stop-color="#394F5F"/>
<stop offset="1" stop-color="#082337"/>
</linearGradient>
<linearGradient id="paint9_linear_519_14756" x1="35.5649" y1="40.6244" x2="41.7414" y2="54.4563" gradientUnits="userSpaceOnUse">
<stop stop-color="#394F5F"/>
<stop offset="1" stop-color="#082337"/>
</linearGradient>
<linearGradient id="paint10_linear_519_14756" x1="36.2216" y1="42.941" x2="41.7163" y2="51.3033" gradientUnits="userSpaceOnUse">
<stop stop-color="#E8EEF4"/>
<stop offset="1" stop-color="#082337"/>
</linearGradient>
<linearGradient id="paint11_linear_519_14756" x1="36.5173" y1="44.7498" x2="38.297" y2="44.7498" gradientUnits="userSpaceOnUse">
<stop stop-color="#394F5F"/>
<stop offset="1" stop-color="#082337"/>
</linearGradient>
<linearGradient id="paint12_linear_519_14756" x1="10.3174" y1="40.6244" x2="16.4939" y2="54.4563" gradientUnits="userSpaceOnUse">
<stop stop-color="#394F5F"/>
<stop offset="1" stop-color="#082337"/>
</linearGradient>
<linearGradient id="paint13_linear_519_14756" x1="10.9741" y1="0.788424" x2="16.4687" y2="0.788424" gradientUnits="userSpaceOnUse">
<stop stop-color="#E8EEF4"/>
<stop offset="1" stop-color="#082337"/>
</linearGradient>
<linearGradient id="paint14_linear_519_14756" x1="11.2698" y1="44.7498" x2="13.0495" y2="44.7498" gradientUnits="userSpaceOnUse">
<stop stop-color="#394F5F"/>
<stop offset="1" stop-color="#082337"/>
</linearGradient>
<linearGradient id="paint15_linear_519_14756" x1="9.85113" y1="11.4115" x2="10.8538" y2="31.6857" gradientUnits="userSpaceOnUse">
<stop stop-color="#F0CD33"/>
<stop offset="1" stop-color="#DD9833"/>
</linearGradient>
<linearGradient id="paint16_linear_519_14756" x1="25.2726" y1="11.4115" x2="26.2753" y2="31.6857" gradientUnits="userSpaceOnUse">
<stop stop-color="#F0CD33"/>
<stop offset="1" stop-color="#DD9833"/>
</linearGradient>
<linearGradient id="paint17_linear_519_14756" x1="2.73192" y1="3.10937" x2="24.9412" y2="22.8621" gradientUnits="userSpaceOnUse">
<stop stop-color="#F0CD33"/>
<stop offset="1" stop-color="#DD9833"/>
</linearGradient>
<linearGradient id="paint18_linear_519_14756" x1="18.1584" y1="3.10937" x2="40.3627" y2="22.8621" gradientUnits="userSpaceOnUse">
<stop stop-color="#F0CD33"/>
<stop offset="1" stop-color="#DD9833"/>
</linearGradient>
<linearGradient id="paint19_linear_519_14756" x1="28.7015" y1="8.99509" x2="39.1645" y2="20.4005" gradientUnits="userSpaceOnUse">
<stop stop-color="#46A56C"/>
<stop offset="1" stop-color="#59C788"/>
</linearGradient>
<linearGradient id="paint20_linear_519_14756" x1="34.8883" y1="-0.144892" x2="39.1146" y2="25.9247" gradientUnits="userSpaceOnUse">
<stop stop-color="#008CC8"/>
<stop offset="1" stop-color="#01518D"/>
</linearGradient>
<linearGradient id="paint21_linear_519_14756" x1="-2.02057" y1="11.4614" x2="9.43" y2="21.2576" gradientUnits="userSpaceOnUse">
<stop stop-color="#96E2B5"/>
<stop offset="1" stop-color="#59C788"/>
</linearGradient>
<linearGradient id="paint22_linear_519_14756" x1="13.1848" y1="11.4417" x2="21.2313" y2="32.7034" gradientUnits="userSpaceOnUse">
<stop stop-color="#46A56C"/>
<stop offset="1" stop-color="#59C788"/>
</linearGradient>
<linearGradient id="paint23_linear_519_14756" x1="13.0796" y1="0.417185" x2="23.1565" y2="27.0433" gradientUnits="userSpaceOnUse">
<stop stop-color="#46A56C"/>
<stop offset="1" stop-color="#59C788"/>
</linearGradient>
<linearGradient id="paint24_linear_519_14756" x1="12.9497" y1="3.05423" x2="25.7739" y2="14.0335" gradientUnits="userSpaceOnUse">
<stop stop-color="#96E2B5"/>
<stop offset="1" stop-color="#59C788"/>
</linearGradient>
<linearGradient id="paint25_linear_519_14756" x1="19.5623" y1="17.583" x2="26.1599" y2="23.228" gradientUnits="userSpaceOnUse">
<stop stop-color="#96E2B5"/>
<stop offset="1" stop-color="#59C788"/>
</linearGradient>
<linearGradient id="paint26_linear_519_14756" x1="29.9499" y1="17.9739" x2="38.3774" y2="27.1634" gradientUnits="userSpaceOnUse">
<stop stop-color="#46A56C"/>
<stop offset="1" stop-color="#59C788"/>
</linearGradient>
</defs>
</svg>
