<svg width="52" height="58" viewBox="0 0 52 58" fill="none" xmlns="http://www.w3.org/2000/svg">
<g filter="url(#filter0_d_110_1351)">
<path d="M31.2988 0C40.1354 0 47.2988 7.16344 47.2988 16V27.2988C47.2988 36.1354 40.1354 43.2988 31.2988 43.2988H29.3965L26.5439 49.0039C26.1754 49.741 25.1234 49.741 24.7549 49.0039L21.9023 43.2988H20C11.1634 43.2988 4 36.1354 4 27.2988V16C4 7.16344 11.1634 0 20 0H31.2988Z" fill="white"/>
<rect x="6.49802" y="2.49805" width="38.303" height="38.303" rx="15" fill="#01518D"/>
<path d="M21.6527 32.0267V11.2876" stroke="white" stroke-width="1.5" stroke-linecap="round" stroke-linejoin="round"/>
<path d="M21.6527 14.1445L35.0051 18.8815L21.6527 23.6185" fill="white"/>
<path d="M21.6527 14.1445L35.0051 18.8815L21.6527 23.6185" stroke="white" stroke-width="1.5" stroke-linecap="round" stroke-linejoin="round"/>
</g>
<defs>
<filter id="filter0_d_110_1351" x="0" y="0" width="51.2988" height="57.5566" filterUnits="userSpaceOnUse" color-interpolation-filters="sRGB">
<feFlood flood-opacity="0" result="BackgroundImageFix"/>
<feColorMatrix in="SourceAlpha" type="matrix" values="0 0 0 0 0 0 0 0 0 0 0 0 0 0 0 0 0 0 127 0" result="hardAlpha"/>
<feOffset dy="4"/>
<feGaussianBlur stdDeviation="2"/>
<feComposite in2="hardAlpha" operator="out"/>
<feColorMatrix type="matrix" values="0 0 0 0 0 0 0 0 0 0 0 0 0 0 0 0 0 0 0.25 0"/>
<feBlend mode="normal" in2="BackgroundImageFix" result="effect1_dropShadow_110_1351"/>
<feBlend mode="normal" in="SourceGraphic" in2="effect1_dropShadow_110_1351" result="shape"/>
</filter>
</defs>
</svg>
