<?xml version="1.0" encoding="UTF-8"?>
<svg version="1.1" xmlns="http://www.w3.org/2000/svg" width="256" height="256">
<path d="M0 0 C0.61230469 0.52722656 1.22460938 1.05445312 1.85546875 1.59765625 C22.12790218 20.42549822 33.03862022 49.02377092 34.12890625 76.21484375 C34.65124609 107.1721847 24.07863593 132.90035829 4 156 C3.20916016 156.91845703 3.20916016 156.91845703 2.40234375 157.85546875 C-16.42549822 178.12790218 -45.02377092 189.03862022 -72.21484375 190.12890625 C-103.1721847 190.65124609 -128.90035829 180.07863593 -152 160 C-152.91845703 159.20916016 -152.91845703 159.20916016 -153.85546875 158.40234375 C-174.12790218 139.57450178 -185.03862022 110.97622908 -186.12890625 83.78515625 C-186.65124609 52.8278153 -176.07863593 27.09964171 -156 4 C-155.47277344 3.38769531 -154.94554687 2.77539062 -154.40234375 2.14453125 C-112.98912709 -42.44617006 -43.37405526 -37.70153128 0 0 Z " fill="#FF0000" transform="translate(204,48)"/>
</svg>
