<svg width="24" height="24" viewBox="0 0 24 24" fill="none" xmlns="http://www.w3.org/2000/svg">
<path d="M23.2453 12.4963V17.1564H20.5059C20.5059 16.0975 19.6441 15.2296 18.5853 15.2296C17.5264 15.2296 16.6646 16.0914 16.6646 17.1564H13.9375V7.83008H18.5914L23.2515 12.4901L23.2453 12.4963Z" stroke="#082337" stroke-width="1.5" stroke-linecap="round" stroke-linejoin="round"/>
<path d="M13.9299 4.5V17.1628H7.33689C7.33689 16.104 6.47505 15.236 5.41623 15.236C4.3574 15.236 3.49556 16.0978 3.49556 17.1628H0.75V4.5H13.9299Z" stroke="#082337" stroke-width="1.5" stroke-linecap="round" stroke-linejoin="round"/>
<path d="M7.33742 17.1631C7.33742 18.222 6.47558 19.0777 5.41676 19.0777C4.35793 19.0777 3.49609 18.222 3.49609 17.1631C3.49609 16.1043 4.35793 15.2363 5.41676 15.2363C6.47558 15.2363 7.33742 16.0982 7.33742 17.1631Z" stroke="#082337" stroke-width="1.5" stroke-linecap="round" stroke-linejoin="round"/>
<path d="M20.5054 17.1631C20.5054 18.222 19.6436 19.0777 18.5847 19.0777C17.5259 19.0777 16.6641 18.222 16.6641 17.1631C16.6641 16.1043 17.5259 15.2363 18.5847 15.2363C19.6436 15.2363 20.5054 16.0982 20.5054 17.1631Z" stroke="#082337" stroke-width="1.5" stroke-linecap="round" stroke-linejoin="round"/>
</svg>
