<svg width="20" height="20" viewBox="0 0 20 20" fill="none" xmlns="http://www.w3.org/2000/svg">
<path d="M9.9967 4.40556L19.091 2.22021V16.1196L9.9967 18.3049V4.40556Z" stroke="white" stroke-width="1.5" stroke-linecap="round" stroke-linejoin="round"/>
<path d="M9.99663 4.40556L0.909119 2.22021V16.1196L9.99663 18.3049V4.40556Z" stroke="white" stroke-width="1.5" stroke-linecap="round" stroke-linejoin="round"/>
<path d="M19.0909 7.15381L9.99663 13.0583L0.909119 13.3841" stroke="white" stroke-width="1.5" stroke-linecap="round" stroke-linejoin="round"/>
<path d="M16.6001 8.76931L15.521 3.0752" stroke="white" stroke-width="1.5" stroke-linecap="round" stroke-linejoin="round"/>
<path d="M3.91571 13.2759L4.20754 16.9136" stroke="white" stroke-width="1.5" stroke-linecap="round" stroke-linejoin="round"/>
<path d="M5.18479 5.18652C3.94959 5.18652 2.94514 6.19097 2.94514 7.42616C2.94514 7.47367 2.94514 7.51439 2.94514 7.5619C3.0198 9.91013 5.178 11.315 5.178 11.315C5.178 11.315 7.3362 9.91013 7.41085 7.5619C7.41085 7.51439 7.41085 7.47367 7.41085 7.42616C7.41085 6.19097 6.40641 5.18652 5.17121 5.18652H5.18479ZM5.18479 8.36274C4.66899 8.36274 4.24821 7.94196 4.24821 7.42616C4.24821 6.91037 4.66899 6.48959 5.18479 6.48959C5.70058 6.48959 6.12136 6.91037 6.12136 7.42616C6.12136 7.94196 5.70058 8.36274 5.18479 8.36274Z" fill="white"/>
</svg>
