<svg width="24" height="24" viewBox="0 0 24 24" fill="none" xmlns="http://www.w3.org/2000/svg">
<path d="M12.0072 22C12.0072 22 17.0514 20.3375 19.0606 16.6233C21.0769 12.9091 21.0627 4.02335 21.0627 4.02335C21.0627 4.02335 17.7093 3.88893 12.0001 2C6.29795 3.88185 2.9375 4.02335 2.9375 4.02335C2.9375 4.02335 2.93043 12.9091 4.93962 16.6233C6.94882 20.3375 11.993 22 11.993 22H12.0072Z" stroke="#082337" stroke-width="1.5" stroke-linecap="round" stroke-linejoin="round"/>
<path d="M12.0068 12.8388C13.2532 12.8388 14.2636 11.8284 14.2636 10.582C14.2636 9.3356 13.2532 8.3252 12.0068 8.3252C10.7604 8.3252 9.75 9.3356 9.75 10.582C9.75 11.8284 10.7604 12.8388 12.0068 12.8388Z" stroke="#082337" stroke-width="1.5" stroke-linecap="round" stroke-linejoin="round"/>
<path d="M12.0078 12.8389V15.6687" stroke="#082337" stroke-width="1.5" stroke-linecap="round" stroke-linejoin="round"/>
</svg>
