<svg width="24" height="24" viewBox="0 0 24 24" fill="none" xmlns="http://www.w3.org/2000/svg">
<rect width="24" height="24" rx="10" fill="#E8EEF4"/>
<path d="M18.125 6.80074C18.125 6.88684 18.1202 12.8277 16.7713 15.3198C15.4081 17.8358 11.9976 18.9599 11.9976 18.9599C11.9976 18.9599 8.59191 17.8358 7.22867 15.3198C5.86544 12.8085 5.875 6.80074 5.875 6.80074C5.875 6.80074 8.14228 6.70985 11.9976 5.4375C15.8577 6.70985 18.125 6.80074 18.125 6.80074Z" fill="#9BAAB7"/>
<path d="M18.1249 6.80074C18.1249 6.88684 18.1202 12.8277 16.7713 15.3198C15.408 17.8358 11.9976 18.9599 11.9976 18.9599V5.4375C15.8577 6.70985 18.1249 6.80074 18.1249 6.80074Z" fill="#9BAAB7"/>
<path d="M12.0023 8.66162V13.928L10.0029 14.8129L10.2277 12.6365L8.7688 11.0102L10.9069 10.551L12.0023 8.66162Z" fill="url(#paint0_linear_846_763)"/>
<path d="M13.7816 12.6365L14.0016 14.8129L12.0022 13.928V8.66162L13.1024 10.551L15.2405 11.0102L13.7816 12.6365Z" fill="url(#paint1_linear_846_763)"/>
<defs>
<linearGradient id="paint0_linear_846_763" x1="-3.49075" y1="-0.694488" x2="19.316" y2="18.8739" gradientUnits="userSpaceOnUse">
<stop stop-color="#9BAAB7"/>
<stop offset="1" stop-color="#E8EEF4"/>
</linearGradient>
<linearGradient id="paint1_linear_846_763" x1="1.90946" y1="1.79761" x2="13.155" y2="12.0482" gradientUnits="userSpaceOnUse">
<stop stop-color="#9BAAB7"/>
<stop offset="1" stop-color="#E8EEF4"/>
</linearGradient>
</defs>
</svg>
