<svg width="24" height="24" viewBox="0 0 24 24" fill="none" xmlns="http://www.w3.org/2000/svg">
<path d="M12.732 3.05666L14.2753 7.81098C14.5491 8.6573 15.3456 9.2381 16.2334 9.2381H21.2284C21.9751 9.2381 22.2821 10.1923 21.6847 10.632L17.644 13.5693C16.9221 14.092 16.6151 15.0296 16.8972 15.8759L18.4405 20.6302C18.6728 21.3438 17.8597 21.9329 17.254 21.4931L13.2132 18.5559C12.4914 18.0332 11.5123 18.0332 10.7904 18.5559L6.74967 21.4931C6.14397 21.9329 5.33085 21.3438 5.56317 20.6302L7.10645 15.8759C7.38026 15.0296 7.08156 14.092 6.3597 13.5693L2.31894 10.632C1.71325 10.1923 2.02856 9.2381 2.77531 9.2381H7.77024C8.66634 9.2381 9.45457 8.66559 9.72838 7.81098L11.2717 3.05666C11.504 2.34309 12.508 2.34309 12.7403 3.05666H12.732Z" stroke="#082337" stroke-width="1.5" stroke-linecap="round" stroke-linejoin="round"/>
</svg>
