<svg width="48" height="48" viewBox="0 0 48 48" fill="none" xmlns="http://www.w3.org/2000/svg">
<path d="M45.0005 5.43898C45.0005 5.73827 44.9839 26.3894 40.295 35.0522C35.5562 43.7982 23.7009 47.7056 23.7009 47.7056C23.7009 47.7056 11.8623 43.7982 7.1235 35.0522C2.38472 26.3229 2.41798 5.43898 2.41798 5.43898C2.41798 5.43898 10.2993 5.12306 23.7009 0.700195C37.1192 5.12306 45.0005 5.43898 45.0005 5.43898Z" fill="url(#paint0_linear_670_35920)"/>
<path d="M45.0027 5.43898C45.0027 5.73827 44.9861 26.3894 40.2972 35.0522C35.5584 43.7982 23.7031 47.7056 23.7031 47.7056V0.700195C37.1214 5.12306 45.0027 5.43898 45.0027 5.43898Z" fill="url(#paint1_linear_670_35920)"/>
<path d="M23.6973 13.9023C19.8564 13.9023 16.7305 17.0283 16.7305 20.8692C16.7305 24.1281 18.9918 26.8883 22.0346 27.6199V32.8408C22.0346 33.7553 22.7828 34.5036 23.6973 34.5036C24.6118 34.5036 25.36 33.7553 25.36 32.8408V27.6199C28.4028 26.8883 30.6642 24.1281 30.6642 20.8692C30.6642 17.0283 27.5382 13.9023 23.6973 13.9023ZM23.6973 24.5106C21.702 24.5106 20.0559 22.8811 20.0559 20.8692C20.0559 18.8573 21.702 17.2278 23.6973 17.2278C25.6926 17.2278 27.3387 18.8573 27.3387 20.8692C27.3387 22.8811 25.7092 24.5106 23.6973 24.5106Z" fill="url(#paint2_linear_670_35920)"/>
<path d="M30.67 20.8692C30.67 24.1281 28.4087 26.8883 25.3659 27.6199V32.8408C25.3659 33.7553 24.6343 34.5036 23.7031 34.5036V24.5106C25.715 24.5106 27.3445 22.8811 27.3445 20.8692C27.3445 18.8573 25.715 17.2278 23.7031 17.2278V13.9023C27.544 13.9023 30.67 17.0283 30.67 20.8692Z" fill="url(#paint3_linear_670_35920)"/>
<defs>
<linearGradient id="paint0_linear_670_35920" x1="-30.7202" y1="-21.8298" x2="41.5919" y2="33.2066" gradientUnits="userSpaceOnUse">
<stop stop-color="#008CC8"/>
<stop offset="1" stop-color="#01518D"/>
</linearGradient>
<linearGradient id="paint1_linear_670_35920" x1="36.8886" y1="-3.42338" x2="17.0023" y2="93.1813" gradientUnits="userSpaceOnUse">
<stop stop-color="#008CC8"/>
<stop offset="1" stop-color="#01518D"/>
</linearGradient>
<linearGradient id="paint2_linear_670_35920" x1="-8.59292" y1="22.482" x2="63.104" y2="26.2897" gradientUnits="userSpaceOnUse">
<stop stop-color="#9BAAB7"/>
<stop offset="1" stop-color="#E8EEF4"/>
</linearGradient>
<linearGradient id="paint3_linear_670_35920" x1="-9.1358" y1="10.3441" x2="23.9027" y2="23.9951" gradientUnits="userSpaceOnUse">
<stop stop-color="#9BAAB7"/>
<stop offset="1" stop-color="#E8EEF4"/>
</linearGradient>
</defs>
</svg>
