<svg width="36" height="36" viewBox="0 0 36 36" fill="none" xmlns="http://www.w3.org/2000/svg">
<path d="M30.043 28.5516C29.2024 28.5516 28.5146 27.8702 28.5146 27.0232V7.85514C28.5146 7.47942 28.6547 7.11643 28.9031 6.83623L32.4247 2.90709C32.9851 2.28301 33.953 2.2257 34.5771 2.7861C35.2076 3.34649 35.2585 4.31445 34.6981 4.93853L31.565 8.43464V27.0169C31.565 27.8575 30.8836 28.5452 30.0366 28.5452L30.043 28.5516Z" fill="#082337"/>
<path d="M26.5213 32.0734H2.44339C1.6028 32.0734 0.915039 31.392 0.915039 30.5451V27.0235C0.915039 26.1829 1.59643 25.4951 2.44339 25.4951C3.29036 25.4951 3.97175 26.1765 3.97175 27.0235V29.0231H26.5277C27.3683 29.0231 28.0561 29.7045 28.0561 30.5514C28.0561 31.3984 27.3747 32.0798 26.5277 32.0798L26.5213 32.0734Z" fill="#082337"/>
<path d="M24.8907 6.83008H6.21289V25.5078H24.8907V6.83008Z" fill="url(#paint0_linear_545_9044)"/>
<path d="M17.7588 6.83008H13.3457V13.2619L15.5554 12.0201L17.7588 13.2619V6.83008Z" fill="url(#paint1_linear_545_9044)"/>
<path d="M30.0431 34.0666C31.988 34.0666 33.5647 32.4899 33.5647 30.545C33.5647 28.6001 31.988 27.0234 30.0431 27.0234C28.0982 27.0234 26.5215 28.6001 26.5215 30.545C26.5215 32.4899 28.0982 34.0666 30.0431 34.0666Z" fill="#082337"/>
<defs>
<linearGradient id="paint0_linear_545_9044" x1="4.35976" y1="-9.24311" x2="17.2807" y2="20.0949" gradientUnits="userSpaceOnUse">
<stop stop-color="#F0CD33"/>
<stop offset="1" stop-color="#DD9833"/>
</linearGradient>
<linearGradient id="paint1_linear_545_9044" x1="12.4796" y1="-10.0328" x2="15.5554" y2="10.0715" gradientUnits="userSpaceOnUse">
<stop stop-color="#008CC8"/>
<stop offset="1" stop-color="#01518D"/>
</linearGradient>
</defs>
</svg>
