<svg width="24" height="24" viewBox="0 0 24 24" fill="none" xmlns="http://www.w3.org/2000/svg">
<path d="M19.176 11.4686V5.56128C19.176 3.59219 17.5838 2 15.6147 2H7.13844C5.16935 2 3.57715 3.59219 3.57715 5.56128V17.4143C3.57715 19.3834 5.16935 20.9756 7.13844 20.9756H10.0767" stroke="#082337" stroke-width="1.5" stroke-linecap="round" stroke-linejoin="round"/>
<path d="M7.4541 7.19922H14.269" stroke="#082337" stroke-width="1.5" stroke-linecap="round" stroke-linejoin="round"/>
<path d="M7.4541 10.2451H12.1153" stroke="#082337" stroke-width="1.5" stroke-linecap="round" stroke-linejoin="round"/>
<path d="M16.8691 20.2676V18.7754" stroke="#082337" stroke-width="1.5" stroke-linecap="round" stroke-linejoin="round"/>
<circle cx="16.8698" cy="16.8297" r="0.769176" fill="#082337"/>
<path d="M16.869 23.1139C19.3838 23.1139 21.4225 21.0752 21.4225 18.5604C21.4225 16.0455 19.3838 14.0068 16.869 14.0068C14.3541 14.0068 12.3154 16.0455 12.3154 18.5604C12.3154 21.0752 14.3541 23.1139 16.869 23.1139Z" stroke="#082337" stroke-width="1.5" stroke-linecap="round" stroke-linejoin="round"/>
</svg>
