<svg width="24" height="24" viewBox="0 0 24 24" fill="none" xmlns="http://www.w3.org/2000/svg">
<path d="M19.0567 21.4727H6.48419C4.1431 21.4727 2.25 19.5796 2.25 17.2385V3.34375H16.1231V18.5391C16.1231 20.1577 17.4382 21.4799 19.0639 21.4799L19.0567 21.4727Z" stroke="#082337" stroke-width="1.5" stroke-linecap="round" stroke-linejoin="round"/>
<path d="M21.9982 13.3867V18.5313C21.9982 20.1499 20.6832 21.4721 19.0502 21.4721C17.4172 21.4721 16.1094 20.1571 16.1094 18.5313V13.3867H21.991H21.9982Z" stroke="#082337" stroke-width="1.5" stroke-linecap="round" stroke-linejoin="round"/>
<path d="M21.9982 13.3867V18.5313C21.9982 20.1499 20.6832 21.4721 19.0502 21.4721C17.4172 21.4721 16.1094 20.1571 16.1094 18.5313V13.3867H21.991H21.9982Z" stroke="#082337" stroke-width="1.5" stroke-linecap="round" stroke-linejoin="round"/>
<path d="M5.47656 8.09863H10.6501" stroke="#082337" stroke-width="1.5" stroke-linecap="round" stroke-linejoin="round"/>
<path d="M5.47656 11.207H10.6501" stroke="#082337" stroke-width="1.5" stroke-linecap="round" stroke-linejoin="round"/>
</svg>
