<svg width="16" height="17" viewBox="0 0 16 17" fill="none" xmlns="http://www.w3.org/2000/svg">
<path d="M11.8392 9.69347C11.8081 9.67851 10.6416 9.10412 10.4344 9.02952C10.3497 8.99913 10.2591 8.96947 10.1627 8.96947C10.0052 8.96947 9.87285 9.04796 9.76978 9.20214C9.65326 9.37534 9.30053 9.78765 9.19155 9.91082C9.17731 9.92708 9.15788 9.94651 9.14625 9.94651C9.13581 9.94651 8.95529 9.87217 8.90064 9.84843C7.64937 9.3049 6.6996 7.99783 6.56937 7.77741C6.55077 7.74573 6.54999 7.73134 6.54983 7.73134C6.55441 7.71456 6.59648 7.67238 6.6182 7.65061C6.68173 7.58775 6.75056 7.5049 6.81716 7.42474C6.84869 7.38677 6.88028 7.34874 6.91129 7.3129C7.00791 7.20048 7.05093 7.11321 7.1008 7.01212L7.12693 6.9596C7.24869 6.71767 7.14469 6.51352 7.11108 6.4476C7.0835 6.39243 6.59098 5.20375 6.53861 5.07887C6.41269 4.77752 6.2463 4.63721 6.01508 4.63721C5.99363 4.63721 6.01508 4.63721 5.92511 4.641C5.81555 4.64562 5.21893 4.72417 4.95513 4.89045C4.67539 5.06682 4.20215 5.629 4.20215 6.61767C4.20215 7.50749 4.76682 8.34765 5.00926 8.66718C5.01529 8.67523 5.02636 8.6916 5.04241 8.71508C5.97087 10.071 7.12833 11.0759 8.30168 11.5446C9.43129 11.9959 9.9662 12.048 10.2703 12.048H10.2704C10.3981 12.048 10.5004 12.038 10.5907 12.0291L10.6479 12.0236C11.0381 11.9891 11.8957 11.5447 12.0908 11.0026C12.2444 10.5756 12.2849 10.1092 12.1827 9.93986C12.1127 9.82474 11.992 9.76682 11.8392 9.69347Z" fill="white"/>
<path d="M8.14201 0.5C3.80871 0.5 0.283312 3.99891 0.283312 8.29964C0.283312 9.69065 0.655572 11.0523 1.36077 12.2439L0.0110009 16.2255C-0.0141419 16.2997 0.00455936 16.3818 0.0594684 16.4377C0.0991047 16.4782 0.152871 16.5 0.20778 16.5C0.228819 16.5 0.250014 16.4968 0.270689 16.4902L4.42237 15.171C5.55848 15.778 6.84253 16.0984 8.14206 16.0984C12.4749 16.0984 16 12.5999 16 8.29964C16 3.99891 12.4749 0.5 8.14201 0.5ZM8.14201 14.4737C6.9192 14.4737 5.73484 14.1206 4.71676 13.4526C4.68253 13.4301 4.64279 13.4185 4.60279 13.4185C4.58165 13.4185 4.56045 13.4218 4.53983 13.4283L2.46009 14.0894L3.13147 12.1087C3.15318 12.0446 3.14232 11.9739 3.10232 11.9192C2.32705 10.8599 1.91723 9.60831 1.91723 8.29964C1.91723 4.89481 4.70965 2.12473 8.14195 2.12473C11.5738 2.12473 14.3659 4.89481 14.3659 8.29964C14.366 11.7041 11.574 14.4737 8.14201 14.4737Z" fill="white"/>
</svg>
