<svg width="22" height="22" viewBox="0 0 22 22" fill="none" xmlns="http://www.w3.org/2000/svg">
<path d="M11.8822 10.4813C14.1402 10.4813 15.9705 8.6509 15.9705 6.39299C15.9705 4.13508 14.1402 2.30469 11.8822 2.30469C9.62434 2.30469 7.79395 4.13508 7.79395 6.39299C7.79395 8.6509 9.62434 10.4813 11.8822 10.4813Z" fill="#082337"/>
<path d="M3.25324 14.3086H4.88857C6.68046 14.3086 8.12441 15.7525 8.12441 17.5444V19.8061H0V17.5444C0 15.7525 1.44395 14.3086 3.23585 14.3086H3.25324Z" fill="#082337"/>
<path d="M4.07048 12.9686C5.73268 12.9686 7.08017 11.6211 7.08017 9.9589C7.08017 8.2967 5.73268 6.94922 4.07048 6.94922C2.40828 6.94922 1.06079 8.2967 1.06079 9.9589C1.06079 11.6211 2.40828 12.9686 4.07048 12.9686Z" fill="#082337"/>
<path d="M21.7634 7.67983L18.6667 13.0555C17.8316 14.4995 17.3967 16.1348 17.3967 17.8049V19.823H6.34961V16.1C6.34961 14.0297 8.05452 12.3248 10.1248 12.3248H11.8645C13.7433 12.3248 15.4657 11.3332 16.4051 9.69788L18.6145 5.87054C19.1016 5.00068 20.215 4.68754 21.0849 5.20945C21.9547 5.73136 22.2679 6.80998 21.746 7.67983H21.7634Z" fill="#082337"/>
</svg>
