<svg width="32" height="32" viewBox="0 0 32 32" fill="none" xmlns="http://www.w3.org/2000/svg">
<path d="M30.1145 15.8967C30.1145 23.7451 23.7461 30.1135 15.8977 30.1135C12.9108 30.1135 10.1302 29.1896 7.84296 27.62L1.98581 29.2255L3.8784 23.4939C2.47017 21.2874 1.67188 18.6862 1.67188 15.8967C1.67187 8.03931 8.04029 1.6709 15.8977 1.6709C23.755 1.6709 30.1145 8.03931 30.1145 15.8967Z" fill="url(#paint0_linear_322_2056)"/>
<path d="M23.5654 21.9514C23.404 22.1218 23.2425 22.2743 23.0631 22.4537C22.794 22.7049 22.525 22.974 22.2738 23.2699C21.8612 23.7095 21.3768 23.9247 20.74 23.9247C20.6772 23.9247 20.6144 23.9247 20.5516 23.9247C19.3407 23.844 18.2106 23.3686 17.3585 22.965C15.0443 21.8438 13.0082 20.2562 11.3219 18.238C9.92266 16.5607 8.98982 15 8.37989 13.3316C8.00317 12.3091 7.85965 11.5198 7.92244 10.7663C7.96729 10.2909 8.14668 9.8873 8.48753 9.55543L9.88678 8.15617C10.0841 7.96781 10.2994 7.86914 10.5057 7.86914C10.7658 7.86914 10.9721 8.02162 11.1067 8.15617C11.1067 8.15617 11.1067 8.15617 11.1156 8.16514C11.3668 8.39835 11.6 8.64053 11.8511 8.90065C11.9767 9.03519 12.1112 9.16076 12.2368 9.29531L13.358 10.4165C13.7886 10.847 13.7886 11.2507 13.358 11.6812C13.2414 11.7978 13.1248 11.9144 13.0082 12.031C12.6674 12.3809 12.3355 12.7127 11.9857 13.0267C11.9857 13.0267 11.9677 13.0356 11.9677 13.0446C11.6179 13.3944 11.6807 13.7442 11.7525 13.9774C11.7525 13.9864 11.7525 14.0043 11.7614 14.0133C12.0485 14.7129 12.4611 15.3767 13.08 16.166C14.2101 17.5653 15.4031 18.6416 16.7127 19.4758C16.8831 19.5834 17.0535 19.6642 17.2149 19.7539C17.3585 19.8256 17.502 19.8974 17.6186 19.9691C17.6365 19.9691 17.6545 19.9871 17.6634 19.996C17.8069 20.0678 17.9325 20.0947 18.0671 20.0947C18.4079 20.0947 18.6232 19.8794 18.686 19.8167L20.0852 18.4174C20.2287 18.2739 20.444 18.1124 20.7041 18.1124C20.9642 18.1124 21.1705 18.2739 21.2961 18.4084L23.5475 20.6688C23.9691 21.0903 23.9691 21.5119 23.5475 21.9514H23.5654Z" fill="url(#paint1_linear_322_2056)"/>
<defs>
<linearGradient id="paint0_linear_322_2056" x1="16.0009" y1="-5.17151" x2="12.2866" y2="33.4571" gradientUnits="userSpaceOnUse">
<stop stop-color="#F0CD33"/>
<stop offset="1" stop-color="#DD9833"/>
</linearGradient>
<linearGradient id="paint1_linear_322_2056" x1="9.49212" y1="8.52392" x2="38.5357" y2="48.5463" gradientUnits="userSpaceOnUse">
<stop stop-color="#008CC8"/>
<stop offset="1" stop-color="#01518D"/>
</linearGradient>
</defs>
</svg>
