<svg width="18" height="18" viewBox="0 0 18 18" fill="none" xmlns="http://www.w3.org/2000/svg">
<path d="M9.05957 0.120117C13.997 0.120117 18 4.12315 18 9.06055C17.9997 13.9977 13.9968 18 9.05957 18C4.12256 17.9997 0.120381 13.9976 0.120117 9.06055C0.120117 4.12331 4.1224 0.120379 9.05957 0.120117ZM9.05957 5.54785C8.68724 5.54796 8.38586 5.84935 8.38574 6.22168V9.05957C8.38574 9.21921 8.45705 9.37974 8.56348 9.50391L11.1533 12.3242C11.2951 12.4658 11.4723 12.5361 11.6494 12.5361L11.667 12.5547C11.8266 12.5547 11.9862 12.501 12.1104 12.377C12.3764 12.1286 12.3948 11.7026 12.1465 11.4365L9.7334 8.81152V6.22168C9.73328 5.84928 9.432 5.54785 9.05957 5.54785Z" fill="#9BAAB7"/>
</svg>
