<svg width="18" height="18" viewBox="0 0 18 18" fill="none" xmlns="http://www.w3.org/2000/svg">
<path d="M17.1292 8.56515V15.4719C17.1292 16.4727 16.3382 17.293 15.389 17.293H12.668C12.0511 17.293 11.5606 16.7844 11.5606 16.1446V11.9775C11.5606 11.1737 10.9437 10.5338 10.1685 10.5338H7.58989C6.83054 10.5338 6.21357 11.1737 6.21357 11.9611V16.1446C6.21357 16.7844 5.72316 17.293 5.10619 17.293H2.38519C1.43601 17.293 0.64502 16.4727 0.64502 15.4719V8.56515C0.64502 8.04017 0.866496 7.548 1.23035 7.20348L7.71645 1.24823C8.38088 0.641216 9.3617 0.641216 10.042 1.24823L16.5597 7.21989C16.9394 7.56441 17.145 8.05658 17.145 8.56515H17.1292Z" fill="white"/>
</svg>
