<svg width="16" height="4" viewBox="0 0 16 4" fill="none" xmlns="http://www.w3.org/2000/svg">
<path d="M2.10315 3.6184C2.98854 3.6184 3.7063 2.90065 3.7063 2.01526C3.7063 1.12986 2.98854 0.412109 2.10315 0.412109C1.21776 0.412109 0.5 1.12986 0.5 2.01526C0.5 2.90065 1.21776 3.6184 2.10315 3.6184Z" fill="#9BAAB7"/>
<path d="M7.99219 3.6184C8.87758 3.6184 9.59534 2.90065 9.59534 2.01526C9.59534 1.12986 8.87758 0.412109 7.99219 0.412109C7.10679 0.412109 6.38904 1.12986 6.38904 2.01526C6.38904 2.90065 7.10679 3.6184 7.99219 3.6184Z" fill="#9BAAB7"/>
<path d="M13.897 3.6184C14.7824 3.6184 15.5001 2.90065 15.5001 2.01526C15.5001 1.12986 14.7824 0.412109 13.897 0.412109C13.0116 0.412109 12.2938 1.12986 12.2938 2.01526C12.2938 2.90065 13.0116 3.6184 13.897 3.6184Z" fill="#9BAAB7"/>
</svg>
