<svg width="19" height="18" viewBox="0 0 19 18" fill="none" xmlns="http://www.w3.org/2000/svg">
<path d="M16.5038 3.25315V13.093C17.3196 13.4215 17.9001 14.221 17.9001 15.1518C17.9001 16.3784 16.9035 17.3695 15.6824 17.3695C14.7461 17.3695 13.9466 16.7891 13.6235 15.9732H0.821355C0.366872 15.9732 0 15.6063 0 15.1518V13.2573C0 12.8028 0.366872 12.4359 0.821355 12.4359C1.27584 12.4359 1.64271 12.8028 1.64271 13.2573V14.3305H13.6235C13.848 13.7665 14.2971 13.3175 14.8611 13.093V2.93556C14.8611 2.73296 14.9322 2.54131 15.0691 2.38799L16.9637 0.274368C17.2704 -0.0651256 17.7851 -0.0925042 18.1246 0.208659C18.4641 0.509823 18.4914 1.03001 18.1903 1.36951L16.5038 3.25315Z" fill="#9BAAB7"/>
<path d="M12.9064 2.3877V12.4411H2.85303V2.3877H6.69149V5.84834L7.87972 5.1803L9.06795 5.84834V2.3877H12.9064Z" fill="#9BAAB7"/>
</svg>
