<svg width="16" height="18" viewBox="0 0 16 18" fill="none" xmlns="http://www.w3.org/2000/svg">
<path d="M8.00013 2.22096C8.61343 2.22096 9.1106 1.72378 9.1106 1.11048C9.1106 0.497179 8.61343 0 8.00013 0C7.38683 0 6.88965 0.497179 6.88965 1.11048C6.88965 1.72378 7.38683 2.22096 8.00013 2.22096Z" fill="#9BAAB7"/>
<path d="M10.4768 14.7437C10.4768 16.0933 9.38339 17.2038 8.01665 17.2038C6.6499 17.2038 5.53943 16.0933 5.53943 14.7437H10.4939H10.4768Z" fill="#9BAAB7"/>
<path d="M7.65814 1.11035H8.34151C11.3654 1.11035 13.8085 3.55341 13.8085 6.57733V12.7277H2.19116V6.57733C2.19116 3.55341 4.63421 1.11035 7.65814 1.11035Z" fill="#9BAAB7"/>
<path d="M15.5 14.0601H0.5L2.19136 11.1729H13.8087L15.5 14.0601Z" fill="#9BAAB7"/>
</svg>
