<svg width="19" height="18" viewBox="0 0 19 18" fill="none" xmlns="http://www.w3.org/2000/svg">
<path d="M1.45996 6.984L1.45996 15.397H5.13059V6.984H1.45996Z" stroke="#01518D" stroke-linecap="round" stroke-linejoin="round"/>
<path d="M1.45996 6.984L1.45996 15.397H5.13059V6.984H1.45996Z" stroke="#01518D" stroke-linecap="round" stroke-linejoin="round"/>
<path d="M13.8293 6.984V15.397H17.5V6.984H13.8293Z" stroke="#01518D" stroke-linecap="round" stroke-linejoin="round"/>
<path d="M13.8293 6.984V15.397H17.5V6.984H13.8293Z" stroke="#01518D" stroke-linecap="round" stroke-linejoin="round"/>
<path d="M13.8294 11.7266H5.13062V15.3972H13.8294V11.7266Z" stroke="#01518D" stroke-linecap="round" stroke-linejoin="round"/>
<path d="M13.8294 11.7266H5.13062V15.3972H13.8294V11.7266Z" stroke="#01518D" stroke-linecap="round" stroke-linejoin="round"/>
<path d="M6.70246 1.81299H12.2575C13.1238 1.81299 13.8294 2.51854 13.8294 3.38484V11.1816H5.13062V3.38484C5.13062 2.51854 5.83616 1.81299 6.70246 1.81299Z" stroke="#01518D" stroke-linecap="round" stroke-linejoin="round"/>
<path d="M7.0596 7.98486H11.9002C12.963 7.98486 13.8293 8.85117 13.8293 9.91395V11.1822H5.12158V9.91395C5.12158 8.85117 5.98789 7.98486 7.05068 7.98486H7.0596Z" stroke="#01518D" stroke-linecap="round" stroke-linejoin="round"/>
</svg>
